{"glyphs":{"0":{"ha":690,"x_min":39,"x_max":640,"o":"m 340 -14 q 183 24 252 -14 q 77 126 115 62 q 39 265 39 189 l 40 705 q 79 844 40 783 q 184 944 117 907 q 340 982 252 982 q 496 945 429 982 q 601 845 562 907 q 639 705 639 782 l 640 265 q 602 126 640 190 q 496 24 564 62 q 340 -14 429 -14 m 472 265 l 471 705 q 434 785 471 754 q 340 815 398 815 q 244 785 280 815 q 208 705 208 754 l 208 265 q 244 184 208 214 q 340 154 280 154 q 435 184 398 154 q 472 265 472 214 z "},"1":{"ha":292,"x_min":55,"x_max":224,"o":"m 219 0 l 62 0 q 55 7 55 0 l 56 961 q 62 966 56 966 l 218 966 q 223 961 223 966 l 224 7 q 219 0 224 0 z "},"2":{"ha":610,"x_min":23,"x_max":565,"o":"m 553 0 l 35 0 q 28 7 28 0 l 28 164 q 31 170 28 167 l 374 640 q 390 673 384 653 q 397 708 397 693 q 368 783 397 749 q 294 817 338 817 q 221 784 251 817 q 191 701 191 751 l 191 633 q 184 627 191 627 l 28 627 q 23 633 23 627 l 23 701 q 62 843 23 779 q 161 944 100 907 q 294 982 223 982 q 430 944 368 982 q 528 843 491 905 q 565 708 565 781 q 549 615 565 663 q 505 532 533 568 l 241 170 l 553 170 q 559 164 559 170 l 559 7 q 553 0 559 0 z "},"3":{"ha":611,"x_min":23,"x_max":566,"o":"m 294 -16 q 159 23 221 -16 q 60 125 97 61 q 23 265 23 189 l 23 328 q 28 335 23 335 l 184 335 q 191 328 191 335 l 191 265 q 220 187 191 220 q 294 154 250 154 q 370 188 342 154 q 398 265 398 222 l 398 302 q 371 380 398 346 q 302 415 344 415 l 248 415 q 241 422 241 415 l 243 578 q 248 583 243 583 l 302 583 q 369 612 340 583 q 398 689 398 642 l 398 708 q 368 784 398 753 q 294 815 338 815 q 221 784 251 815 q 191 708 191 753 l 191 642 q 186 635 191 635 l 30 635 q 24 642 24 635 l 24 715 q 63 851 24 791 q 163 946 101 911 q 294 982 224 982 q 431 945 369 982 q 529 847 492 908 q 565 713 565 786 l 565 690 q 545 585 565 629 q 488 500 524 541 q 545 409 524 458 q 566 307 566 359 l 566 265 q 530 123 566 188 q 431 22 492 60 q 294 -16 369 -16 z "},"4":{"ha":626,"x_min":19,"x_max":597,"o":"m 487 0 l 330 0 q 325 7 325 0 l 325 170 l 24 170 q 19 176 19 170 l 19 329 l 321 961 q 330 966 325 966 l 487 966 q 491 961 491 966 l 492 335 l 590 335 q 597 328 597 335 l 597 176 q 591 170 597 170 l 492 170 l 492 7 q 487 0 492 0 m 183 335 l 325 335 l 325 637 l 183 335 z "},"5":{"ha":601,"x_min":31,"x_max":576,"o":"m 304 -14 q 168 24 230 -14 q 68 123 106 61 q 31 257 31 184 l 31 298 q 37 304 31 304 l 195 304 q 200 298 200 304 l 200 267 q 231 188 200 220 q 304 155 261 155 q 377 188 347 155 q 407 267 407 221 l 407 361 q 376 433 407 404 q 298 463 345 463 q 200 415 239 463 l 197 411 l 49 422 q 41 429 41 422 l 58 810 l 66 961 q 72 966 66 966 l 539 966 q 545 961 545 966 l 545 810 q 539 803 545 803 l 214 803 l 207 611 q 251 625 224 619 q 300 631 278 631 q 438 594 375 631 q 539 496 501 557 q 576 361 576 435 l 576 267 q 540 127 576 191 q 441 25 503 63 q 304 -14 379 -14 z "},"6":{"ha":631,"x_min":39,"x_max":585,"o":"m 312 -14 q 177 24 239 -14 q 78 125 115 62 q 40 262 40 187 l 39 701 q 77 842 39 777 q 177 944 115 905 q 312 982 239 982 q 449 944 387 982 q 548 842 511 905 q 585 701 585 779 l 585 673 q 578 668 585 668 l 422 668 q 416 673 416 668 l 416 701 q 387 780 416 747 q 312 812 357 812 q 239 780 269 812 q 208 701 208 747 l 208 606 q 312 627 257 627 q 449 589 387 627 q 547 489 511 552 q 583 349 583 425 l 583 262 q 547 124 583 187 q 448 24 509 61 q 312 -14 387 -14 m 312 153 q 385 184 355 153 q 415 262 415 216 l 415 349 q 385 426 415 393 q 312 458 355 458 q 239 427 269 458 q 208 349 208 395 l 208 262 q 239 185 208 218 q 312 153 269 153 z "},"7":{"ha":614,"x_min":26,"x_max":574,"o":"m 299 0 l 127 0 q 124 7 121 0 l 410 803 l 31 803 q 26 808 26 803 l 26 960 q 31 966 26 966 l 569 966 q 574 960 574 966 l 574 804 l 308 7 q 299 0 305 0 z "},"8":{"ha":623,"x_min":31,"x_max":574,"o":"m 302 -14 q 168 24 230 -14 q 68 125 106 62 q 31 262 31 187 l 31 349 q 53 458 31 407 q 113 547 75 509 q 65 626 82 581 q 47 722 47 671 q 81 854 47 793 q 174 947 115 913 q 302 982 232 982 q 431 947 374 982 q 524 853 489 911 q 558 722 558 794 q 541 626 558 671 q 493 547 524 582 q 552 458 530 510 q 574 349 574 407 l 574 262 q 537 124 574 187 q 439 24 500 61 q 302 -14 378 -14 m 302 629 q 365 656 339 629 q 390 722 390 684 q 365 789 390 761 q 302 817 339 817 q 240 789 267 817 q 214 722 214 761 q 240 657 214 685 q 302 629 267 629 m 302 153 q 376 184 346 153 q 406 262 406 216 l 406 349 q 376 426 406 393 q 302 458 346 458 q 229 427 260 458 q 199 349 199 395 l 199 262 q 229 185 199 218 q 302 153 260 153 z "},"9":{"ha":623,"x_min":27,"x_max":573,"o":"m 299 -14 q 163 24 226 -14 q 64 126 101 62 q 27 267 27 191 l 27 294 q 34 300 27 300 l 190 300 q 195 294 195 300 l 195 267 q 226 188 195 221 q 299 155 256 155 q 373 188 342 155 q 404 267 404 221 l 404 363 q 299 342 355 342 q 163 379 224 342 q 65 480 102 416 q 28 619 28 543 l 28 705 q 66 844 28 783 q 164 944 102 907 q 299 982 226 982 q 435 945 373 982 q 534 844 496 907 q 572 705 572 781 l 572 619 l 573 267 q 536 127 573 191 q 436 25 498 63 q 299 -14 374 -14 m 299 510 q 374 542 344 510 q 404 619 404 574 l 404 705 q 373 783 404 750 q 299 815 342 815 q 227 783 256 815 q 197 705 197 751 l 197 619 q 227 543 197 575 q 299 510 256 510 z "},"A":{"ha":593,"x_min":8,"x_max":562,"o":"m 8 7 l 180 961 q 187 966 182 966 l 389 966 q 395 961 394 966 l 561 7 q 555 0 562 0 l 401 0 q 394 7 395 0 l 379 109 l 190 109 l 175 7 q 168 0 174 0 l 14 0 q 8 7 8 0 m 280 647 l 218 257 l 351 257 l 294 647 l 286 699 l 280 647 z "},"B":{"ha":644,"x_min":55,"x_max":606,"o":"m 309 0 l 60 0 q 55 7 55 0 l 58 961 q 63 966 58 966 l 330 966 q 472 928 408 966 q 570 828 534 890 q 606 692 606 765 q 579 581 606 632 q 515 497 552 529 q 577 404 555 457 q 600 293 600 351 q 561 146 600 212 q 456 40 522 79 q 309 0 390 0 m 330 802 l 224 802 l 224 583 l 330 583 q 408 617 378 583 q 438 692 438 652 q 406 769 438 736 q 330 802 374 802 m 309 415 l 224 415 l 223 170 l 309 170 q 395 206 359 170 q 431 293 431 243 q 395 379 431 343 q 309 415 359 415 z "},"C":{"ha":629,"x_min":39,"x_max":583,"o":"m 311 -14 q 173 24 235 -14 q 75 126 111 62 q 39 269 39 191 l 40 703 q 75 842 40 780 q 173 944 111 905 q 311 982 235 982 q 448 945 388 982 q 546 844 509 907 q 582 703 582 781 l 582 639 q 576 633 582 633 l 420 633 q 415 639 415 633 l 415 703 q 385 782 415 749 q 311 815 355 815 q 235 781 261 815 q 208 703 208 747 l 208 269 q 238 186 208 218 q 311 154 268 154 q 385 190 355 154 q 415 269 415 225 l 415 334 q 420 339 415 339 l 578 339 q 583 334 583 339 l 583 269 q 547 127 583 191 q 448 25 509 63 q 311 -14 387 -14 z "},"D":{"ha":655,"x_min":55,"x_max":601,"o":"m 311 1 l 62 0 q 55 7 55 0 l 58 961 q 63 966 58 966 l 323 968 q 463 932 400 970 q 563 832 526 895 q 601 692 601 768 l 601 293 q 562 146 601 213 q 458 42 523 81 q 311 1 393 3 m 323 802 l 226 800 l 224 171 l 311 171 q 397 207 362 171 q 433 293 433 243 l 433 693 q 400 770 433 737 q 323 802 368 803 z "},"E":{"ha":583,"x_min":55,"x_max":515,"o":"m 509 0 l 60 0 q 55 7 55 0 l 56 961 q 62 966 56 966 l 508 966 q 513 960 513 966 l 513 804 q 508 799 513 799 l 223 799 l 223 582 l 508 582 q 513 576 513 582 l 515 419 q 509 414 515 414 l 223 414 l 223 171 l 509 171 q 515 164 515 171 l 515 5 q 509 0 515 0 z "},"F":{"ha":585,"x_min":55,"x_max":516,"o":"m 218 0 l 62 0 q 55 7 55 0 l 58 961 q 63 966 58 966 l 508 966 q 515 961 515 966 l 515 804 q 509 799 515 799 l 224 799 l 224 583 l 509 583 q 515 576 515 583 l 516 419 q 509 414 516 414 l 224 414 l 224 7 q 218 0 224 0 z "},"G":{"ha":625,"x_min":39,"x_max":582,"o":"m 309 -14 q 174 24 234 -14 q 76 124 113 61 q 39 265 39 187 l 39 705 q 76 844 39 781 q 174 944 113 907 q 309 982 236 982 q 448 945 386 982 q 546 846 509 908 q 582 705 582 783 l 582 642 q 575 636 582 636 l 419 636 q 414 642 414 636 l 414 694 q 384 782 414 747 q 309 817 354 817 q 238 783 269 817 q 207 705 207 750 l 207 265 q 237 187 207 220 q 309 154 268 154 q 384 186 354 154 q 414 265 414 218 l 414 334 l 317 334 q 309 340 309 334 l 309 496 q 317 503 309 503 l 576 503 q 582 496 582 503 l 582 265 q 545 124 582 187 q 447 24 508 61 q 309 -14 386 -14 z "},"H":{"ha":659,"x_min":55,"x_max":601,"o":"m 218 0 l 60 0 q 55 7 55 0 l 56 961 q 63 966 56 966 l 218 966 q 224 961 224 966 l 223 583 l 431 583 l 431 961 q 437 966 431 966 l 591 966 q 598 961 598 966 l 601 7 q 594 0 601 0 l 438 0 q 431 7 431 0 l 431 415 l 223 415 l 223 7 q 218 0 223 0 z "},"I":{"ha":292,"x_min":55,"x_max":224,"o":"m 219 0 l 62 0 q 55 7 55 0 l 56 961 q 62 966 56 966 l 218 966 q 223 961 223 966 l 224 7 q 219 0 224 0 z "},"J":{"ha":604,"x_min":11,"x_max":554,"o":"m 283 -14 q 144 23 206 -14 q 46 124 82 60 q 11 269 11 189 l 11 334 q 16 339 11 339 l 174 339 q 179 332 179 339 l 179 269 q 208 186 179 218 q 283 154 237 154 q 355 189 325 154 q 386 269 386 224 l 386 960 q 391 965 386 965 l 547 965 q 553 958 553 965 l 554 269 q 517 129 554 193 q 419 25 480 64 q 283 -14 358 -14 z "},"K":{"ha":651,"x_min":55,"x_max":647,"o":"m 218 0 l 60 0 q 55 7 55 0 l 58 960 q 63 966 58 966 l 219 966 q 224 960 224 966 l 224 631 l 442 961 q 452 966 448 966 l 612 966 q 614 961 618 966 l 374 578 l 644 5 q 637 0 647 0 l 467 0 q 459 5 460 0 l 271 414 l 223 338 l 223 7 q 218 0 223 0 z "},"L":{"ha":551,"x_min":55,"x_max":516,"o":"m 509 0 l 60 0 q 55 7 55 0 l 56 960 q 63 966 56 966 l 218 966 q 224 960 224 966 l 223 171 l 509 171 q 516 164 516 171 l 516 7 q 509 0 516 0 z "},"M":{"ha":745,"x_min":55,"x_max":684,"o":"m 218 0 l 60 0 q 55 7 55 0 l 58 961 q 63 966 58 966 l 233 966 q 242 961 238 966 l 369 778 l 495 961 q 505 966 499 966 l 675 966 q 682 961 682 966 l 684 7 q 679 0 684 0 l 522 0 q 516 7 516 0 l 515 715 l 369 504 l 224 715 l 223 7 q 218 0 223 0 z "},"N":{"ha":644,"x_min":55,"x_max":578,"o":"m 206 0 l 67 0 q 56 9 56 0 l 55 956 q 66 966 55 966 l 191 966 l 426 419 l 419 956 q 431 966 419 966 l 569 966 q 577 956 577 966 l 578 8 q 572 0 578 0 l 450 0 l 209 511 l 219 11 q 206 0 219 0 z "},"O":{"ha":634,"x_min":39,"x_max":585,"o":"m 312 -14 q 176 24 238 -14 q 76 126 114 62 q 39 265 39 189 l 40 705 q 77 844 40 783 q 176 944 114 907 q 312 982 239 982 q 448 945 388 982 q 546 845 509 907 q 583 705 583 782 l 585 265 q 548 126 585 189 q 449 24 511 62 q 312 -14 387 -14 m 312 154 q 385 188 354 154 q 416 265 416 222 l 415 705 q 386 783 415 751 q 312 815 357 815 q 239 784 269 815 q 208 705 208 753 l 208 265 q 239 187 208 220 q 312 154 269 154 z "},"P":{"ha":634,"x_min":55,"x_max":606,"o":"m 218 0 l 62 0 q 55 7 55 0 l 58 961 q 63 966 58 966 l 330 966 q 532 889 458 966 q 606 677 606 811 q 568 507 606 580 q 466 396 528 435 q 330 357 404 357 l 224 357 l 224 7 q 218 0 224 0 m 330 802 l 224 800 l 224 525 l 330 525 q 407 567 374 525 q 439 677 439 610 q 410 767 439 732 q 330 802 381 802 z "},"Q":{"ha":647,"x_min":39,"x_max":637,"o":"m 512 -89 l 416 8 q 312 -14 366 -14 q 176 24 238 -14 q 76 125 114 61 q 39 265 39 189 l 40 705 q 77 842 40 779 q 174 944 113 905 q 312 982 236 982 q 448 945 386 982 q 546 846 509 908 q 583 705 583 783 l 585 265 q 573 188 585 225 q 544 118 562 150 l 630 31 q 631 21 637 25 l 522 -89 q 512 -89 517 -93 m 312 154 q 388 190 359 154 q 416 265 416 225 l 415 705 q 386 783 415 750 q 312 815 357 815 q 237 782 265 815 q 208 705 208 749 l 208 265 q 241 184 208 215 q 312 154 273 154 z "},"R":{"ha":669,"x_min":55,"x_max":621,"o":"m 218 0 l 60 0 q 55 7 55 0 l 58 961 q 63 966 58 966 l 344 966 q 482 930 419 966 q 583 831 545 893 q 621 692 621 770 q 605 600 621 641 q 569 530 589 558 q 531 488 548 501 q 606 292 606 404 l 608 7 q 601 0 608 0 l 444 0 q 438 4 438 0 l 438 292 q 403 378 438 342 q 316 415 368 415 l 224 415 l 223 7 q 218 0 223 0 m 344 800 l 224 800 l 224 582 l 344 582 q 420 614 387 582 q 454 692 454 646 q 421 768 454 736 q 344 800 389 800 z "},"S":{"ha":605,"x_min":19,"x_max":564,"o":"m 291 -14 q 155 24 217 -14 q 56 126 93 62 q 19 265 19 189 l 19 329 q 26 336 19 336 l 182 336 q 187 329 187 336 l 187 265 q 218 187 187 220 q 291 154 248 154 q 365 188 334 154 q 395 265 395 221 q 329 354 395 316 q 301 371 318 361 q 260 393 283 380 q 214 419 236 406 q 170 443 191 431 q 57 555 94 488 q 20 707 20 623 q 58 846 20 784 q 158 944 96 908 q 291 981 219 981 q 427 944 365 981 q 525 845 488 907 q 562 707 562 783 l 562 593 q 557 587 562 587 l 401 587 q 395 593 395 587 l 394 707 q 363 786 394 755 q 291 817 333 817 q 218 784 248 817 q 187 707 187 751 q 207 631 187 661 q 277 572 226 600 q 302 559 283 570 q 346 535 322 548 q 390 511 370 522 q 414 498 410 500 q 523 404 483 460 q 564 265 564 347 q 527 123 564 186 q 428 23 490 60 q 291 -14 366 -14 z "},"T":{"ha":555,"x_min":1,"x_max":543,"o":"m 351 0 l 195 0 q 189 7 189 0 l 189 799 l 8 799 q 1 806 1 799 l 3 961 q 8 966 3 966 l 536 966 q 543 961 543 966 l 543 806 q 538 799 543 799 l 355 799 l 357 7 q 351 0 357 0 z "},"U":{"ha":639,"x_min":39,"x_max":585,"o":"m 311 -14 q 175 24 237 -14 q 76 126 113 62 q 39 267 39 191 l 41 961 q 47 966 41 966 l 203 966 q 208 961 208 966 l 208 267 q 238 187 208 220 q 311 154 268 154 q 385 187 355 154 q 415 267 415 220 l 415 961 q 420 966 415 966 l 576 966 q 582 961 582 966 l 585 267 q 548 125 585 190 q 449 24 511 62 q 311 -14 387 -14 z "},"V":{"ha":601,"x_min":11,"x_max":576,"o":"m 379 0 l 211 0 q 204 7 205 0 l 12 961 q 18 966 11 966 l 175 966 q 182 961 180 966 l 296 325 l 407 961 q 414 966 408 966 l 569 966 q 574 961 576 966 l 386 7 q 379 0 385 0 z "},"W":{"ha":873,"x_min":11,"x_max":848,"o":"m 351 0 l 183 0 q 176 7 177 0 l 12 961 q 16 966 11 966 l 172 966 q 179 961 178 966 l 268 334 l 359 961 q 368 966 361 966 l 493 966 q 500 961 498 966 l 590 334 l 680 961 q 687 966 682 966 l 842 966 q 847 961 848 966 l 682 7 q 677 2 681 4 l 675 0 l 507 0 q 500 7 503 0 l 429 505 l 358 7 q 351 0 357 0 z "},"X":{"ha":561,"x_min":7,"x_max":537,"o":"m 168 0 l 12 0 q 8 7 7 0 l 167 503 l 11 961 q 15 966 9 966 l 171 966 q 179 961 178 966 l 272 631 l 366 961 q 375 966 368 966 l 529 966 q 533 961 534 966 l 378 504 l 534 7 q 530 0 537 0 l 375 0 q 366 7 369 0 l 272 366 l 176 7 q 168 0 176 0 z "},"Y":{"ha":557,"x_min":-5,"x_max":538,"o":"m 345 0 l 185 0 q 180 5 180 0 l 182 400 l -4 961 q 0 966 -5 966 l 155 966 q 163 961 161 966 l 265 587 l 370 961 q 376 966 371 966 l 532 966 q 536 961 538 966 l 349 406 l 350 5 q 345 0 350 0 z "},"Z":{"ha":574,"x_min":11,"x_max":543,"o":"m 536 0 l 18 0 q 11 7 11 0 l 12 158 l 353 808 l 31 808 q 24 814 24 808 l 24 960 q 31 966 24 966 l 533 966 q 540 960 540 966 l 540 810 l 201 163 l 536 163 q 541 155 541 163 l 543 7 q 536 0 543 0 z "},"a":{"ha":593,"x_min":8,"x_max":562,"o":"m 8 7 l 180 961 q 187 966 182 966 l 389 966 q 395 961 394 966 l 561 7 q 555 0 562 0 l 401 0 q 394 7 395 0 l 379 109 l 190 109 l 175 7 q 168 0 174 0 l 14 0 q 8 7 8 0 m 280 647 l 218 257 l 351 257 l 294 647 l 286 699 l 280 647 z "},"b":{"ha":644,"x_min":55,"x_max":606,"o":"m 309 0 l 60 0 q 55 7 55 0 l 58 961 q 63 966 58 966 l 330 966 q 472 928 408 966 q 570 828 534 890 q 606 692 606 765 q 579 581 606 632 q 515 497 552 529 q 577 404 555 457 q 600 293 600 351 q 561 146 600 212 q 456 40 522 79 q 309 0 390 0 m 330 802 l 224 802 l 224 583 l 330 583 q 408 617 378 583 q 438 692 438 652 q 406 769 438 736 q 330 802 374 802 m 309 415 l 224 415 l 223 170 l 309 170 q 395 206 359 170 q 431 293 431 243 q 395 379 431 343 q 309 415 359 415 z "},"c":{"ha":629,"x_min":39,"x_max":583,"o":"m 311 -14 q 173 24 235 -14 q 75 126 111 62 q 39 269 39 191 l 40 703 q 75 842 40 780 q 173 944 111 905 q 311 982 235 982 q 448 945 388 982 q 546 844 509 907 q 582 703 582 781 l 582 639 q 576 633 582 633 l 420 633 q 415 639 415 633 l 415 703 q 385 782 415 749 q 311 815 355 815 q 235 781 261 815 q 208 703 208 747 l 208 269 q 238 186 208 218 q 311 154 268 154 q 385 190 355 154 q 415 269 415 225 l 415 334 q 420 339 415 339 l 578 339 q 583 334 583 339 l 583 269 q 547 127 583 191 q 448 25 509 63 q 311 -14 387 -14 z "},"d":{"ha":655,"x_min":55,"x_max":601,"o":"m 311 1 l 62 0 q 55 7 55 0 l 58 961 q 63 966 58 966 l 323 968 q 463 932 400 970 q 563 832 526 895 q 601 692 601 768 l 601 293 q 562 146 601 213 q 458 42 523 81 q 311 1 393 3 m 323 802 l 226 800 l 224 171 l 311 171 q 397 207 362 171 q 433 293 433 243 l 433 693 q 400 770 433 737 q 323 802 368 803 z "},"e":{"ha":583,"x_min":55,"x_max":515,"o":"m 509 0 l 60 0 q 55 7 55 0 l 56 961 q 62 966 56 966 l 508 966 q 513 960 513 966 l 513 804 q 508 799 513 799 l 223 799 l 223 582 l 508 582 q 513 576 513 582 l 515 419 q 509 414 515 414 l 223 414 l 223 171 l 509 171 q 515 164 515 171 l 515 5 q 509 0 515 0 z "},"f":{"ha":585,"x_min":55,"x_max":516,"o":"m 218 0 l 62 0 q 55 7 55 0 l 58 961 q 63 966 58 966 l 508 966 q 515 961 515 966 l 515 804 q 509 799 515 799 l 224 799 l 224 583 l 509 583 q 515 576 515 583 l 516 419 q 509 414 516 414 l 224 414 l 224 7 q 218 0 224 0 z "},"g":{"ha":625,"x_min":39,"x_max":582,"o":"m 309 -14 q 174 24 234 -14 q 76 124 113 61 q 39 265 39 187 l 39 705 q 76 844 39 781 q 174 944 113 907 q 309 982 236 982 q 448 945 386 982 q 546 846 509 908 q 582 705 582 783 l 582 642 q 575 636 582 636 l 419 636 q 414 642 414 636 l 414 694 q 384 782 414 747 q 309 817 354 817 q 238 783 269 817 q 207 705 207 750 l 207 265 q 237 187 207 220 q 309 154 268 154 q 384 186 354 154 q 414 265 414 218 l 414 334 l 317 334 q 309 340 309 334 l 309 496 q 317 503 309 503 l 576 503 q 582 496 582 503 l 582 265 q 545 124 582 187 q 447 24 508 61 q 309 -14 386 -14 z "},"h":{"ha":659,"x_min":55,"x_max":601,"o":"m 218 0 l 60 0 q 55 7 55 0 l 56 961 q 63 966 56 966 l 218 966 q 224 961 224 966 l 223 583 l 431 583 l 431 961 q 437 966 431 966 l 591 966 q 598 961 598 966 l 601 7 q 594 0 601 0 l 438 0 q 431 7 431 0 l 431 415 l 223 415 l 223 7 q 218 0 223 0 z "},"i":{"ha":292,"x_min":55,"x_max":224,"o":"m 219 0 l 62 0 q 55 7 55 0 l 56 961 q 62 966 56 966 l 218 966 q 223 961 223 966 l 224 7 q 219 0 224 0 z "},"j":{"ha":604,"x_min":11,"x_max":554,"o":"m 283 -14 q 144 23 206 -14 q 46 124 82 60 q 11 269 11 189 l 11 334 q 16 339 11 339 l 174 339 q 179 332 179 339 l 179 269 q 208 186 179 218 q 283 154 237 154 q 355 189 325 154 q 386 269 386 224 l 386 960 q 391 965 386 965 l 547 965 q 553 958 553 965 l 554 269 q 517 129 554 193 q 419 25 480 64 q 283 -14 358 -14 z "},"k":{"ha":651,"x_min":55,"x_max":647,"o":"m 218 0 l 60 0 q 55 7 55 0 l 58 960 q 63 966 58 966 l 219 966 q 224 960 224 966 l 224 631 l 442 961 q 452 966 448 966 l 612 966 q 614 961 618 966 l 374 578 l 644 5 q 637 0 647 0 l 467 0 q 459 5 460 0 l 271 414 l 223 338 l 223 7 q 218 0 223 0 z "},"l":{"ha":551,"x_min":55,"x_max":516,"o":"m 509 0 l 60 0 q 55 7 55 0 l 56 960 q 63 966 56 966 l 218 966 q 224 960 224 966 l 223 171 l 509 171 q 516 164 516 171 l 516 7 q 509 0 516 0 z "},"m":{"ha":745,"x_min":55,"x_max":684,"o":"m 218 0 l 60 0 q 55 7 55 0 l 58 961 q 63 966 58 966 l 233 966 q 242 961 238 966 l 369 778 l 495 961 q 505 966 499 966 l 675 966 q 682 961 682 966 l 684 7 q 679 0 684 0 l 522 0 q 516 7 516 0 l 515 715 l 369 504 l 224 715 l 223 7 q 218 0 223 0 z "},"n":{"ha":644,"x_min":55,"x_max":578,"o":"m 206 0 l 67 0 q 56 9 56 0 l 55 956 q 66 966 55 966 l 191 966 l 426 419 l 419 956 q 431 966 419 966 l 569 966 q 577 956 577 966 l 578 8 q 572 0 578 0 l 450 0 l 209 511 l 219 11 q 206 0 219 0 z "},"o":{"ha":634,"x_min":39,"x_max":585,"o":"m 312 -14 q 176 24 238 -14 q 76 126 114 62 q 39 265 39 189 l 40 705 q 77 844 40 783 q 176 944 114 907 q 312 982 239 982 q 448 945 388 982 q 546 845 509 907 q 583 705 583 782 l 585 265 q 548 126 585 189 q 449 24 511 62 q 312 -14 387 -14 m 312 154 q 385 188 354 154 q 416 265 416 222 l 415 705 q 386 783 415 751 q 312 815 357 815 q 239 784 269 815 q 208 705 208 753 l 208 265 q 239 187 208 220 q 312 154 269 154 z "},"p":{"ha":646,"x_min":55,"x_max":606,"o":"m 218 0 l 62 0 q 55 7 55 0 l 58 961 q 63 966 58 966 l 330 966 q 532 889 458 966 q 606 677 606 811 q 568 507 606 580 q 466 396 528 435 q 330 357 404 357 l 224 357 l 224 7 q 218 0 224 0 m 330 802 l 224 800 l 224 525 l 330 525 q 407 567 374 525 q 439 677 439 610 q 410 767 439 732 q 330 802 381 802 z "},"q":{"ha":647,"x_min":39,"x_max":637,"o":"m 512 -89 l 416 8 q 312 -14 366 -14 q 176 24 238 -14 q 76 125 114 61 q 39 265 39 189 l 40 705 q 77 842 40 779 q 174 944 113 905 q 312 982 236 982 q 448 945 386 982 q 546 846 509 908 q 583 705 583 783 l 585 265 q 573 188 585 225 q 544 118 562 150 l 630 31 q 631 21 637 25 l 522 -89 q 512 -89 517 -93 m 312 154 q 388 190 359 154 q 416 265 416 225 l 415 705 q 386 783 415 750 q 312 815 357 815 q 237 782 265 815 q 208 705 208 749 l 208 265 q 241 184 208 215 q 312 154 273 154 z "},"r":{"ha":669,"x_min":55,"x_max":621,"o":"m 218 0 l 60 0 q 55 7 55 0 l 58 961 q 63 966 58 966 l 344 966 q 482 930 419 966 q 583 831 545 893 q 621 692 621 770 q 605 600 621 641 q 569 530 589 558 q 531 488 548 501 q 606 292 606 404 l 608 7 q 601 0 608 0 l 444 0 q 438 4 438 0 l 438 292 q 403 378 438 342 q 316 415 368 415 l 224 415 l 223 7 q 218 0 223 0 m 344 800 l 224 800 l 224 582 l 344 582 q 420 614 387 582 q 454 692 454 646 q 421 768 454 736 q 344 800 389 800 z "},"s":{"ha":605,"x_min":19,"x_max":564,"o":"m 291 -14 q 155 24 217 -14 q 56 126 93 62 q 19 265 19 189 l 19 329 q 26 336 19 336 l 182 336 q 187 329 187 336 l 187 265 q 218 187 187 220 q 291 154 248 154 q 365 188 334 154 q 395 265 395 221 q 329 354 395 316 q 301 371 318 361 q 260 393 283 380 q 214 419 236 406 q 170 443 191 431 q 57 555 94 488 q 20 707 20 623 q 58 846 20 784 q 158 944 96 908 q 291 981 219 981 q 427 944 365 981 q 525 845 488 907 q 562 707 562 783 l 562 593 q 557 587 562 587 l 401 587 q 395 593 395 587 l 394 707 q 363 786 394 755 q 291 817 333 817 q 218 784 248 817 q 187 707 187 751 q 207 631 187 661 q 277 572 226 600 q 302 559 283 570 q 346 535 322 548 q 390 511 370 522 q 414 498 410 500 q 523 404 483 460 q 564 265 564 347 q 527 123 564 186 q 428 23 490 60 q 291 -14 366 -14 z "},"t":{"ha":555,"x_min":1,"x_max":543,"o":"m 351 0 l 195 0 q 189 7 189 0 l 189 799 l 8 799 q 1 806 1 799 l 3 961 q 8 966 3 966 l 536 966 q 543 961 543 966 l 543 806 q 538 799 543 799 l 355 799 l 357 7 q 351 0 357 0 z "},"u":{"ha":639,"x_min":39,"x_max":585,"o":"m 311 -14 q 175 24 237 -14 q 76 126 113 62 q 39 267 39 191 l 41 961 q 47 966 41 966 l 203 966 q 208 961 208 966 l 208 267 q 238 187 208 220 q 311 154 268 154 q 385 187 355 154 q 415 267 415 220 l 415 961 q 420 966 415 966 l 576 966 q 582 961 582 966 l 585 267 q 548 125 585 190 q 449 24 511 62 q 311 -14 387 -14 z "},"v":{"ha":601,"x_min":11,"x_max":576,"o":"m 379 0 l 211 0 q 204 7 205 0 l 12 961 q 18 966 11 966 l 175 966 q 182 961 180 966 l 296 325 l 407 961 q 414 966 408 966 l 569 966 q 574 961 576 966 l 386 7 q 379 0 385 0 z "},"w":{"ha":873,"x_min":11,"x_max":848,"o":"m 351 0 l 183 0 q 176 7 177 0 l 12 961 q 16 966 11 966 l 172 966 q 179 961 178 966 l 268 334 l 359 961 q 368 966 361 966 l 493 966 q 500 961 498 966 l 590 334 l 680 961 q 687 966 682 966 l 842 966 q 847 961 848 966 l 682 7 q 677 2 681 4 l 675 0 l 507 0 q 500 7 503 0 l 429 505 l 358 7 q 351 0 357 0 z "},"x":{"ha":561,"x_min":7,"x_max":537,"o":"m 168 0 l 12 0 q 8 7 7 0 l 167 503 l 11 961 q 15 966 9 966 l 171 966 q 179 961 178 966 l 272 631 l 366 961 q 375 966 368 966 l 529 966 q 533 961 534 966 l 378 504 l 534 7 q 530 0 537 0 l 375 0 q 366 7 369 0 l 272 366 l 176 7 q 168 0 176 0 z "},"y":{"ha":557,"x_min":-5,"x_max":538,"o":"m 345 0 l 185 0 q 180 5 180 0 l 182 400 l -4 961 q 0 966 -5 966 l 155 966 q 163 961 161 966 l 265 587 l 370 961 q 376 966 371 966 l 532 966 q 536 961 538 966 l 349 406 l 350 5 q 345 0 350 0 z "},"z":{"ha":574,"x_min":11,"x_max":543,"o":"m 536 0 l 18 0 q 11 7 11 0 l 12 158 l 353 808 l 31 808 q 24 814 24 808 l 24 960 q 31 966 24 966 l 533 966 q 540 960 540 966 l 540 810 l 201 163 l 536 163 q 541 155 541 163 l 543 7 q 536 0 543 0 z "},"ក":{"ha":880,"x_min":101,"x_max":779,"o":"m 779 1017 l 779 847 l 101 847 l 101 1017 l 779 1017 m 779 576 l 779 0 l 541 0 l 541 576 l 338 576 l 338 0 l 101 0 l 101 576 q 271 746 101 746 l 610 746 q 779 576 779 746 z "},"ខ":{"ha":880,"x_min":101,"x_max":779,"o":"m 390 397 l 338 379 l 338 170 l 541 170 l 541 407 l 779 407 l 779 170 q 610 0 779 0 l 271 0 q 101 170 101 0 l 101 454 l 338 522 q 541 713 541 591 l 541 847 l 338 847 l 338 746 l 372 746 l 372 610 l 203 610 q 101 677 101 610 l 101 847 q 271 1017 101 1017 l 610 1017 q 779 847 779 1017 l 779 713 q 390 397 766 513 z "},"គ":{"ha":880,"x_min":101,"x_max":779,"o":"m 779 1017 l 779 847 l 101 847 l 101 1017 l 779 1017 m 779 576 l 779 0 l 541 0 l 541 576 l 338 576 l 338 232 l 406 357 l 496 309 l 338 18 l 338 0 l 101 0 l 101 576 q 271 746 101 746 l 610 746 q 779 576 779 746 z "},"ឃ":{"ha":1322,"x_min":33,"x_max":1219,"o":"m 101 170 l 101 847 l 33 847 l 33 1017 l 339 1017 l 339 170 l 542 170 l 542 677 l 440 785 l 576 1017 l 779 1017 l 779 847 l 583 847 l 779 677 l 779 170 l 983 170 l 983 677 l 880 785 l 1017 1017 l 1219 1017 l 1219 847 l 1023 847 l 1219 677 l 1219 170 q 1050 0 1219 0 l 271 0 q 101 170 101 0 z "},"ង":{"ha":880,"x_min":66,"x_max":779,"o":"m 337 677 l 337 199 l 440 297 l 541 199 l 541 746 l 269 746 q 100 882 100 746 l 100 1084 l 337 1084 l 337 882 l 534 882 l 534 1017 l 779 1017 l 779 882 q 759 814 779 846 q 703 764 739 782 q 664 750 682 754 l 779 677 l 779 0 l 541 0 l 440 98 l 337 0 l 100 0 l 100 543 l 66 543 l 66 677 l 337 677 z "},"ច":{"ha":880,"x_min":0,"x_max":781,"o":"m 102 170 l 102 677 l 0 785 l 136 1017 l 781 1017 l 781 847 l 143 847 l 339 677 l 339 170 l 543 170 l 543 610 l 475 610 l 475 746 l 781 746 l 781 170 q 610 0 781 0 l 271 0 q 102 170 102 0 z "},"ឆ":{"ha":880,"x_min":0,"x_max":781,"o":"m 781 746 l 781 0 l 543 0 l 339 155 l 339 0 l 102 0 l 102 170 l 33 170 l 33 339 l 102 339 l 102 677 l 0 785 l 136 1017 l 781 1017 l 781 847 l 143 847 l 339 677 l 339 339 l 543 183 l 543 610 l 475 610 l 475 746 l 781 746 z "},"ជ":{"ha":880,"x_min":0,"x_max":781,"o":"m 136 1017 l 543 1017 l 543 1084 l 781 1084 l 781 847 l 143 847 l 339 677 l 339 199 l 440 297 l 543 199 l 543 746 l 781 746 l 781 0 l 543 0 l 440 98 l 339 0 l 102 0 l 102 677 l 0 785 l 136 1017 z "},"ឈ":{"ha":1762,"x_min":101,"x_max":1661,"o":"m 779 847 l 779 170 l 983 170 l 983 677 l 882 785 l 1017 1017 l 1221 1017 l 1221 847 l 1023 847 l 1221 677 l 1221 170 l 1423 170 l 1423 677 l 1322 785 l 1458 1017 l 1661 1017 l 1661 847 l 1463 847 l 1661 677 l 1661 170 q 1491 0 1661 0 l 711 0 q 541 170 541 0 l 541 847 l 338 847 l 338 170 l 407 170 l 407 0 l 101 0 l 101 847 q 271 1017 101 1017 l 610 1017 q 779 847 779 1017 z "},"ញ":{"ha":1322,"x_min":101,"x_max":1221,"o":"m 101 1017 l 338 1017 l 440 918 l 541 1017 l 779 1017 l 779 0 l 541 0 l 541 818 l 440 720 l 338 818 l 338 170 l 407 170 l 407 0 l 101 0 l 101 1017 m 814 847 l 814 1017 l 1221 1017 l 1221 0 l 983 0 l 983 847 l 814 847 m 271 -306 l 101 -306 l 101 -136 l 271 -136 q 782 -339 506 -136 l 983 -339 l 983 -237 l 882 -237 l 882 -68 l 1084 -68 q 1221 -203 1221 -68 l 1221 -339 q 1084 -475 1221 -475 l 686 -475 q 271 -306 439 -306 z "},"ដ":{"ha":880,"x_min":101,"x_max":779,"o":"m 644 781 l 101 781 l 101 1017 l 372 1017 l 372 950 l 338 950 l 338 916 l 541 916 l 541 1084 l 779 1084 l 779 882 q 644 781 779 781 m 440 297 l 541 199 l 541 713 l 779 713 l 779 0 l 541 0 l 440 98 l 338 0 l 101 0 l 101 713 l 338 713 l 338 199 l 440 297 z "},"ឋ":{"ha":880,"x_min":33,"x_max":779,"o":"m 677 1084 l 779 1084 l 779 847 l 583 847 l 779 677 l 779 170 q 610 0 779 0 l 271 0 q 101 170 101 0 l 101 847 l 33 847 l 33 1017 l 339 1017 l 339 170 l 542 170 l 542 677 l 440 785 l 576 1017 l 677 1017 l 677 1084 z "},"ឌ":{"ha":880,"x_min":101,"x_max":779,"o":"m 541 713 l 541 818 l 440 720 l 338 818 l 338 713 l 372 713 l 372 610 l 101 610 l 101 1017 l 338 1017 l 440 918 l 541 1017 l 779 1017 l 779 713 q 390 397 766 513 l 338 379 l 338 136 l 541 237 l 541 407 l 779 407 l 779 0 l 541 0 l 541 102 l 338 0 l 101 0 l 101 454 l 338 522 q 541 713 541 591 z "},"ឍ":{"ha":1322,"x_min":101,"x_max":1221,"o":"m 779 1017 l 779 339 l 983 183 l 983 677 l 882 785 l 1017 1017 l 1221 1017 l 1221 847 l 1023 847 l 1221 677 l 1221 0 l 983 0 l 779 155 l 779 0 l 541 0 l 541 170 l 475 170 l 475 339 l 541 339 l 541 818 l 440 720 l 338 818 l 338 170 l 407 170 l 407 0 l 101 0 l 101 1017 l 338 1017 l 440 918 l 541 1017 l 779 1017 z "},"ណ":{"ha":1762,"x_min":101,"x_max":1661,"o":"m 1221 0 l 983 0 l 882 98 l 779 0 l 541 0 l 541 847 l 338 847 l 338 170 l 407 170 l 407 0 l 101 0 l 101 847 q 271 1017 101 1017 l 610 1017 q 779 847 779 1017 l 779 199 l 882 297 l 983 199 l 983 847 q 1152 1017 983 1017 l 1491 1017 q 1661 847 1661 1017 l 1661 0 l 1423 0 l 1423 847 l 1221 847 l 1221 0 z "},"ត":{"ha":880,"x_min":101,"x_max":779,"o":"m 779 1017 l 779 847 l 101 847 l 101 1017 l 779 1017 m 338 576 l 338 170 l 407 170 l 407 0 l 101 0 l 101 576 q 271 746 101 746 l 610 746 q 779 576 779 746 l 779 0 l 541 0 l 541 576 l 338 576 z "},"ថ":{"ha":880,"x_min":0,"x_max":781,"o":"m 136 1017 l 543 1017 l 543 1084 l 781 1084 l 781 847 l 143 847 l 339 677 l 339 170 l 543 170 l 543 610 l 475 610 l 475 746 l 781 746 l 781 170 q 610 0 781 0 l 271 0 q 102 170 102 0 l 102 677 l 0 785 l 136 1017 z "},"ទ":{"ha":880,"x_min":101,"x_max":779,"o":"m 779 847 l 779 713 q 677 644 779 644 l 508 644 l 508 781 l 541 781 l 541 847 l 338 847 l 338 677 q 484 557 338 591 l 577 536 q 596 554 585 544 q 622 576 607 564 l 779 576 l 779 436 q 709 366 779 387 l 779 332 l 779 170 q 610 0 779 0 l 271 0 q 101 170 101 0 l 101 421 l 338 374 l 338 170 l 541 170 l 541 397 l 338 447 q 101 677 101 500 l 101 847 q 271 1017 101 1017 l 610 1017 q 779 847 779 1017 z "},"ធ":{"ha":880,"x_min":0,"x_max":781,"o":"m 102 677 l 0 785 l 136 1017 l 781 1017 l 781 847 l 143 847 l 339 677 l 339 199 l 440 297 l 543 199 l 543 610 l 475 610 l 475 746 l 781 746 l 781 0 l 543 0 l 440 98 l 339 0 l 102 0 l 102 677 z "},"ន":{"ha":880,"x_min":101,"x_max":779,"o":"m 508 610 l 508 746 l 541 746 l 541 847 l 338 847 l 338 677 q 541 529 338 585 l 779 473 l 779 0 l 541 0 l 440 98 l 338 0 l 101 0 l 101 407 l 338 407 l 338 199 l 440 297 l 541 199 l 541 390 l 491 404 q 101 677 101 511 l 101 847 q 271 1017 101 1017 l 610 1017 q 779 847 779 1017 l 779 610 l 508 610 z "},"ប":{"ha":880,"x_min":0,"x_max":781,"o":"m 339 847 l 143 847 l 339 677 l 339 170 l 543 170 l 543 677 l 440 785 l 576 1017 l 781 1017 l 781 847 l 583 847 l 781 677 l 781 170 q 610 0 781 0 l 271 0 q 102 170 102 0 l 102 677 l 0 785 l 136 1017 l 339 1017 l 339 847 z "},"ផ":{"ha":880,"x_min":0,"x_max":781,"o":"m 440 98 l 339 0 l 102 0 l 102 677 l 0 785 l 136 1017 l 543 1017 l 543 1084 l 781 1084 l 781 847 l 143 847 l 339 677 l 339 199 l 440 297 l 543 199 l 543 610 l 475 610 l 475 746 l 781 746 l 781 0 l 543 0 l 440 98 z "},"ព":{"ha":880,"x_min":101,"x_max":779,"o":"m 101 1017 l 338 1017 l 440 918 l 541 1017 l 779 1017 l 779 0 l 541 0 l 541 818 l 440 720 l 338 818 l 338 170 l 407 170 l 407 0 l 101 0 l 101 1017 z "},"ភ":{"ha":880,"x_min":33,"x_max":779,"o":"m 779 1017 l 779 847 l 101 847 l 101 1017 l 779 1017 m 779 576 l 779 0 l 542 0 l 542 576 l 339 576 l 339 0 l 33 0 l 33 170 l 101 170 l 101 576 q 271 746 101 746 l 610 746 q 779 576 779 746 z "},"ម":{"ha":880,"x_min":0,"x_max":781,"o":"m 339 170 l 543 170 l 543 407 l 374 407 l 374 576 l 543 576 l 543 677 l 440 785 l 576 1017 l 781 1017 l 781 847 l 583 847 l 781 677 l 781 170 q 610 0 781 0 l 271 0 q 102 170 102 0 l 102 677 l 0 785 l 136 1017 l 339 1017 l 339 847 l 143 847 l 339 677 l 339 170 z "},"យ":{"ha":1322,"x_min":101,"x_max":1221,"o":"m 101 170 l 101 1017 l 407 1017 l 407 847 l 338 847 l 338 170 l 541 170 l 541 677 l 440 785 l 576 1017 l 779 1017 l 779 847 l 583 847 l 779 677 l 779 170 l 983 170 l 983 677 l 882 785 l 1017 1017 l 1221 1017 l 1221 847 l 1023 847 l 1221 677 l 1221 170 q 1051 0 1221 0 l 271 0 q 101 170 101 0 z "},"រ":{"ha":440,"x_min":0,"x_max":339,"o":"m 102 170 l 102 677 l 0 785 l 136 1017 l 339 1017 l 339 847 l 143 847 l 339 677 l 339 0 l 33 0 l 33 170 l 102 170 z "},"ល":{"ha":1322,"x_min":101,"x_max":1221,"o":"m 779 847 l 779 170 l 983 170 l 983 677 l 882 785 l 1017 1017 l 1221 1017 l 1221 847 l 1023 847 l 1221 677 l 1221 170 q 1051 0 1221 0 l 711 0 q 541 170 541 0 l 541 847 l 338 847 l 338 170 l 407 170 l 407 0 l 101 0 l 101 847 q 271 1017 101 1017 l 610 1017 q 779 847 779 1017 z "},"វ":{"ha":440,"x_min":0,"x_max":339,"o":"m 0 785 l 136 1017 l 237 1017 l 237 1084 l 339 1084 l 339 847 l 143 847 l 339 677 l 339 0 l 33 0 l 33 170 l 102 170 l 102 677 l 0 785 z "},"ឝ":{"ha":880,"x_min":101,"x_max":847,"o":"m 779 1017 l 779 847 l 101 847 l 101 1017 l 779 1017 m 779 576 l 779 440 l 847 440 l 847 306 l 779 306 l 779 0 l 541 0 l 541 306 l 494 306 l 338 18 l 338 0 l 101 0 l 101 576 q 271 746 101 746 l 610 746 q 779 576 779 746 m 406 357 l 440 338 l 440 440 l 541 440 l 541 576 l 338 576 l 338 232 l 406 357 z "},"ឞ":{"ha":880,"x_min":0,"x_max":847,"o":"m 339 170 l 543 170 l 543 440 l 440 440 l 440 576 l 543 576 l 543 677 l 440 785 l 576 1017 l 781 1017 l 781 847 l 583 847 l 781 677 l 781 576 l 847 576 l 847 440 l 781 440 l 781 170 q 610 0 781 0 l 271 0 q 102 170 102 0 l 102 677 l 0 785 l 136 1017 l 339 1017 l 339 847 l 143 847 l 339 677 l 339 170 z "},"ស":{"ha":1322,"x_min":101,"x_max":1221,"o":"m 101 839 l 203 1017 l 677 1017 l 677 847 l 277 847 l 395 746 l 610 746 q 779 576 779 746 l 779 170 l 983 170 l 983 677 l 882 785 l 1017 1017 l 1221 1017 l 1221 847 l 1023 847 l 1221 677 l 1221 170 q 1051 0 1221 0 l 711 0 q 541 170 541 0 l 541 576 l 338 576 l 338 170 l 407 170 l 407 0 l 101 0 l 101 576 q 207 739 101 712 l 101 839 z "},"ហ":{"ha":1322,"x_min":0,"x_max":1221,"o":"m 1221 847 l 1221 0 l 983 0 l 983 847 l 781 847 l 781 170 q 610 0 781 0 l 271 0 q 102 170 102 0 l 102 677 l 0 785 l 136 1017 l 339 1017 l 339 847 l 143 847 l 339 677 l 339 170 l 543 170 l 543 847 q 713 1017 543 1017 l 1051 1017 q 1221 847 1221 1017 z "},"ឡ":{"ha":1322,"x_min":101,"x_max":1221,"o":"m 779 847 l 779 713 q 677 644 779 644 l 508 644 l 508 781 l 541 781 l 541 847 l 338 847 l 338 677 q 484 557 338 591 l 577 536 q 596 554 585 544 q 622 576 607 564 l 779 576 l 779 436 q 709 366 779 387 l 779 332 l 779 170 q 610 0 779 0 l 271 0 q 101 170 101 0 l 101 421 l 338 374 l 338 170 l 541 170 l 541 397 l 338 447 q 101 677 101 500 l 101 847 q 271 1017 101 1017 l 610 1017 q 779 847 779 1017 m 779 -277 l 882 -176 l 983 -277 l 983 677 l 882 785 l 1017 1017 l 1221 1017 l 1221 847 l 1023 847 l 1221 677 l 1221 -475 l 983 -475 l 882 -376 l 779 -475 l 541 -475 l 541 -203 l 508 -203 l 508 -68 l 779 -68 l 779 -277 z "},"អ":{"ha":880,"x_min":0,"x_max":781,"o":"m 0 785 l 136 1017 l 339 1017 l 339 847 l 143 847 l 339 677 l 339 0 l 33 0 l 33 170 l 102 170 l 102 677 l 0 785 m 440 785 l 576 1017 l 781 1017 l 781 847 l 583 847 l 781 677 l 781 0 l 475 0 l 475 170 l 543 170 l 543 407 l 374 407 l 374 576 l 543 576 l 543 677 l 440 785 z "},"ឥ":{"ha":880,"x_min":101,"x_max":779,"o":"m 541 1017 l 541 1084 l 779 1084 l 779 847 l 101 847 l 101 1017 l 541 1017 m 338 576 l 338 170 l 407 170 l 407 0 l 101 0 l 101 576 q 271 746 101 746 l 610 746 q 779 576 779 746 l 779 0 l 541 0 l 541 576 l 338 576 z "},"ឦ":{"ha":1322,"x_min":101,"x_max":1221,"o":"m 1221 1186 l 1221 -317 q 1051 -403 1221 -403 l 745 -403 q 541 -317 541 -403 l 541 -142 l 338 -142 l 338 -258 l 407 -258 l 407 -403 l 134 -403 l 134 -142 q 338 -56 134 -56 l 541 -56 q 745 -142 745 -56 l 745 -317 l 983 -317 l 983 1186 l 779 1186 l 779 1120 l 541 1120 l 541 1560 l 779 1560 l 779 1322 l 1051 1322 q 1221 1186 1221 1322 m 779 847 l 779 0 l 541 0 l 541 847 l 338 847 l 338 170 l 407 170 l 407 0 l 101 0 l 101 847 q 271 1017 101 1017 l 610 1017 q 779 847 779 1017 z "},"ឧ":{"ha":880,"x_min":101,"x_max":779,"o":"m 338 379 l 338 170 l 541 170 l 541 407 l 779 407 l 779 -136 l 541 -136 l 541 0 l 271 0 q 101 170 101 0 l 101 454 l 338 522 q 541 713 541 591 l 541 847 l 338 847 l 338 746 l 372 746 l 372 610 l 203 610 q 101 677 101 610 l 101 847 q 271 1017 101 1017 l 610 1017 q 779 847 779 1017 l 779 713 q 390 397 766 513 l 338 379 z "},"ឨ":{"ha":880,"x_min":101,"x_max":779,"o":"m 779 1289 l 779 1120 l 101 1120 l 101 1289 l 779 1289 m 338 379 l 338 170 l 541 170 l 541 407 l 779 407 l 779 -136 l 541 -136 l 541 0 l 271 0 q 101 170 101 0 l 101 454 l 338 522 q 541 713 541 591 l 541 847 l 338 847 l 338 746 l 372 746 l 372 610 l 203 610 q 101 677 101 610 l 101 847 q 271 1017 101 1017 l 610 1017 q 779 847 779 1017 l 779 713 q 390 397 766 513 l 338 379 z "},"ឩ":{"ha":880,"x_min":101,"x_max":882,"o":"m 338 379 l 338 170 l 541 170 l 541 407 l 677 407 l 677 -136 l 541 -136 l 541 0 l 271 0 q 101 170 101 0 l 101 454 l 338 522 q 541 713 541 591 l 541 847 l 338 847 l 338 746 l 372 746 l 372 610 l 203 610 q 101 677 101 610 l 101 847 q 271 1017 101 1017 l 610 1017 q 779 847 779 1017 l 779 713 q 390 397 766 513 l 338 379 m 882 -136 l 745 -136 l 745 407 l 882 407 l 882 -136 z "},"ឪ":{"ha":880,"x_min":101,"x_max":779,"o":"m 541 1289 l 541 1357 l 779 1357 l 779 1120 l 101 1120 l 101 1289 l 541 1289 m 338 379 l 338 170 l 541 170 l 541 407 l 779 407 l 779 -136 l 541 -136 l 541 0 l 271 0 q 101 170 101 0 l 101 454 l 338 522 q 541 713 541 591 l 541 847 l 338 847 l 338 746 l 372 746 l 372 610 l 203 610 q 101 677 101 610 l 101 847 q 271 1017 101 1017 l 610 1017 q 779 847 779 1017 l 779 713 q 390 397 766 513 l 338 379 z "},"ឫ":{"ha":880,"x_min":0,"x_max":781,"o":"m 339 847 l 143 847 l 339 677 l 339 170 l 543 170 l 543 677 l 440 785 l 576 1017 l 781 1017 l 781 847 l 583 847 l 781 677 l 781 170 q 610 0 781 0 l 271 0 q 102 170 102 0 l 102 677 l 0 785 l 136 1017 l 339 1017 l 339 847 m 306 -475 l 102 -475 l 102 -339 l 306 -339 q 543 -237 543 -339 l 440 -237 l 440 -68 l 781 -68 l 781 -237 q 306 -475 781 -475 z "},"ឬ":{"ha":880,"x_min":0,"x_max":882,"o":"m 339 847 l 143 847 l 339 677 l 339 170 l 543 170 l 543 677 l 440 785 l 576 1017 l 781 1017 l 781 847 l 583 847 l 781 677 l 781 170 q 610 0 781 0 l 271 0 q 102 170 102 0 l 102 677 l 0 785 l 136 1017 l 339 1017 l 339 847 m 764 -322 q 814 -339 785 -339 l 882 -339 l 882 -475 l 814 -475 q 665 -422 722 -475 q 306 -475 563 -475 l 102 -475 l 102 -339 l 306 -339 q 543 -237 543 -339 l 440 -237 l 440 -68 l 781 -68 l 781 -237 q 764 -322 781 -286 z "},"ឭ":{"ha":880,"x_min":101,"x_max":779,"o":"m 101 1017 l 338 1017 l 440 918 l 541 1017 l 779 1017 l 779 0 l 541 0 l 541 818 l 440 720 l 338 818 l 338 170 l 407 170 l 407 0 l 101 0 l 101 1017 m 304 -475 l 101 -475 l 101 -339 l 304 -339 q 541 -237 541 -339 l 440 -237 l 440 -68 l 779 -68 l 779 -237 q 304 -475 779 -475 z "},"ឮ":{"ha":880,"x_min":101,"x_max":882,"o":"m 101 1017 l 338 1017 l 440 918 l 541 1017 l 779 1017 l 779 0 l 541 0 l 541 818 l 440 720 l 338 818 l 338 170 l 407 170 l 407 0 l 101 0 l 101 1017 m 764 -322 q 814 -339 785 -339 l 882 -339 l 882 -475 l 814 -475 q 663 -422 721 -475 q 304 -475 563 -475 l 101 -475 l 101 -339 l 304 -339 q 541 -237 541 -339 l 440 -237 l 440 -68 l 779 -68 l 779 -237 q 764 -322 779 -286 z "},"ឯ":{"ha":880,"x_min":66,"x_max":779,"o":"m 779 847 l 779 0 l 541 0 l 440 98 l 337 0 l 100 0 l 100 543 l 66 543 l 66 677 l 337 677 l 337 199 l 440 297 l 541 199 l 541 847 l 337 847 l 337 781 l 100 781 l 100 1254 l 337 1254 l 337 1017 l 610 1017 q 779 847 779 1017 z "},"ឰ":{"ha":880,"x_min":101,"x_max":779,"o":"m 101 1017 l 338 1017 l 440 918 l 541 1017 l 779 1017 l 779 0 l 541 0 l 541 818 l 440 720 l 338 818 l 338 170 l 407 170 l 407 0 l 101 0 l 101 1017 m 541 -33 l 779 -33 l 779 -271 q 625 -475 779 -475 q 451 -393 524 -475 q 245 -475 391 -475 q 101 -339 101 -475 l 101 -203 q 541 -33 374 -203 m 441 -205 q 516 -306 491 -306 q 541 -252 541 -306 l 541 -138 q 441 -205 499 -176 m 430 -211 q 352 -248 387 -233 q 290 -273 317 -264 q 340 -318 290 -318 q 430 -211 379 -318 z "},"ឱ":{"ha":880,"x_min":101,"x_max":779,"o":"m 541 1084 l 541 1153 l 101 1153 l 101 1322 l 779 1322 l 779 1084 l 541 1084 m 338 379 l 338 170 l 541 170 l 541 407 l 779 407 l 779 -136 l 541 -136 l 541 0 l 271 0 q 101 170 101 0 l 101 454 l 338 522 q 541 713 541 591 l 541 847 l 338 847 l 338 746 l 372 746 l 372 610 l 203 610 q 101 677 101 610 l 101 847 q 271 1017 101 1017 l 610 1017 q 779 847 779 1017 l 779 713 q 390 397 766 513 l 338 379 z "},"ឲ":{"ha":880,"x_min":101,"x_max":779,"o":"m 779 1017 l 779 847 l 338 847 l 338 170 l 541 170 l 541 278 q 475 339 541 339 l 475 475 l 610 530 l 610 576 l 475 576 l 475 746 l 779 746 l 779 418 l 677 393 q 779 306 779 359 l 779 170 q 610 0 779 0 l 271 0 q 101 170 101 0 l 101 847 q 271 1017 101 1017 l 779 1017 z "},"ឳ":{"ha":880,"x_min":101,"x_max":779,"o":"m 779 1357 l 779 1120 l 304 1120 l 304 1051 l 101 1051 l 101 1289 l 541 1289 l 541 1357 l 779 1357 m 338 379 l 338 170 l 541 170 l 541 407 l 779 407 l 779 -136 l 541 -136 l 541 0 l 271 0 q 101 170 101 0 l 101 454 l 338 522 q 541 713 541 591 l 541 847 l 338 847 l 338 746 l 372 746 l 372 610 l 203 610 q 101 677 101 610 l 101 847 q 271 1017 101 1017 l 610 1017 q 779 847 779 1017 l 779 713 q 390 397 766 513 l 338 379 z "},"ឣ":{"ha":880,"x_min":0,"x_max":781,"o":"m 0 785 l 136 1017 l 339 1017 l 339 847 l 143 847 l 339 677 l 339 0 l 33 0 l 33 170 l 102 170 l 102 677 l 0 785 m 440 785 l 576 1017 l 781 1017 l 781 847 l 583 847 l 781 677 l 781 0 l 475 0 l 475 170 l 543 170 l 543 407 l 374 407 l 374 576 l 543 576 l 543 677 l 440 785 z "},"ឤ":{"ha":1322,"x_min":0,"x_max":1221,"o":"m 0 785 l 136 1017 l 339 1017 l 339 847 l 143 847 l 339 677 l 339 0 l 33 0 l 33 170 l 102 170 l 102 677 l 0 785 m 781 677 l 781 0 l 475 0 l 475 170 l 543 170 l 543 407 l 374 407 l 374 576 l 543 576 l 543 677 l 440 785 l 576 1017 l 1051 1017 q 1221 847 1221 1017 l 1221 0 l 983 0 l 983 847 l 583 847 l 781 677 z "},"឴":{"ha":817,"x_min":0,"x_max":0,"o":""},"឵":{"ha":817,"x_min":0,"x_max":0,"o":""},"ា":{"ha":440,"x_min":-66,"x_max":340,"o":"m 340 847 l 340 0 l 103 0 l 103 847 l -66 847 l -66 1017 l 171 1017 q 340 847 340 1017 z "},"ឿ":{"ha":440,"x_min":-406,"x_max":340,"o":"m 123 1340 l 123 1492 l 204 1492 l 204 1286 q 340 1120 340 1236 l 340 -339 q 171 -475 340 -475 l -168 -475 q -338 -339 -338 -475 l -338 -68 l -100 -68 l -100 -339 l 103 -339 l 103 1120 q 1 1186 103 1186 l -406 1186 l -406 1254 q -345 1407 -406 1358 q -161 1458 -283 1458 q -39 1439 -98 1458 l -39 1492 l 41 1492 l 41 1401 q 123 1340 84 1377 m -161 1322 q -222 1305 -203 1322 q -243 1254 -243 1289 l 75 1254 q -21 1305 39 1289 q -161 1322 -80 1322 z "},"ៀ":{"ha":440,"x_min":-338,"x_max":339,"o":"m -338 -339 l -338 -68 l -101 -68 l -101 -339 l 102 -339 l 102 1221 l -101 1221 l -101 1153 l -338 1153 l -338 1593 l -101 1593 l -101 1357 l 170 1357 q 339 1221 339 1357 l 339 -339 q 170 -475 339 -475 l -169 -475 q -338 -339 -338 -475 z "},"េ":{"ha":440,"x_min":0,"x_max":407,"o":"m 0 785 l 136 1017 l 339 1017 l 339 847 l 143 847 l 339 677 l 339 170 l 407 170 l 407 0 l 102 0 l 102 677 l 0 785 z "},"ែ":{"ha":440,"x_min":0,"x_max":440,"o":"m 258 1084 l 0 1084 l 0 1390 l 258 1390 l 258 1254 l 203 1254 l 203 1207 l 258 1207 q 339 1389 339 1207 l 440 1389 q 258 1084 440 1084 m 0 785 l 136 1017 l 339 1017 l 339 847 l 143 847 l 339 677 l 339 170 l 407 170 l 407 0 l 102 0 l 102 677 l 0 785 z "},"ៃ":{"ha":440,"x_min":0,"x_max":407,"o":"m 136 1390 l 339 1390 l 339 1084 l 33 1084 l 33 1186 l 170 1186 l 170 1289 l 136 1289 l 136 1254 l 33 1254 l 33 1423 q 0 1458 33 1458 l 0 1527 q 136 1423 136 1527 l 136 1390 m 0 785 l 136 1017 l 339 1017 l 339 847 l 143 847 l 339 677 l 339 170 l 407 170 l 407 0 l 102 0 l 102 677 l 0 785 z "},"ោ":{"ha":440,"x_min":-66,"x_max":340,"o":"m 340 847 l 340 0 l 103 0 l 103 847 l -66 847 l -66 1017 l 171 1017 q 340 847 340 1017 z "},"ៅ":{"ha":440,"x_min":-66,"x_max":340,"o":"m 103 1017 l 103 1322 l 1 1322 l 1 1492 l 340 1492 l 340 0 l 103 0 l 103 847 l -66 847 l -66 1017 l 103 1017 z "},"ះ":{"ha":610,"x_min":101,"x_max":508,"o":"m 304 1017 q 404 991 355 1017 q 480 916 452 965 q 508 814 508 867 q 481 713 508 760 q 406 637 454 664 q 304 610 358 610 q 203 637 251 610 q 129 712 156 664 q 101 814 101 761 q 129 916 101 866 q 204 991 157 965 q 304 1017 252 1017 m 304 882 q 257 862 277 882 q 237 814 237 842 q 256 766 237 785 q 304 746 275 746 q 353 765 334 746 q 372 814 372 785 q 352 862 372 842 q 304 882 332 882 m 304 407 q 404 380 355 407 q 480 306 452 354 q 508 203 508 257 q 481 102 508 150 q 406 27 454 55 q 304 0 358 0 q 203 27 251 0 q 129 102 156 54 q 101 203 101 150 q 129 306 101 256 q 204 380 157 354 q 304 407 252 407 m 304 271 q 257 252 276 271 q 237 203 237 233 q 256 155 237 174 q 304 136 275 136 q 353 155 334 136 q 372 203 372 174 q 352 252 372 233 q 304 271 333 271 z "},"ៈ":{"ha":406,"x_min":101,"x_max":304,"o":"m 203 916 q 252 903 229 916 q 290 865 276 890 q 304 814 304 840 q 291 764 304 787 q 253 726 278 739 q 203 713 229 713 q 153 726 176 713 q 115 764 129 740 q 101 814 101 787 q 115 865 101 840 q 153 902 129 889 q 203 916 178 916 m 203 306 q 252 293 229 306 q 290 255 276 280 q 304 203 304 231 q 291 153 304 176 q 253 115 278 129 q 203 102 229 102 q 153 115 176 102 q 101 203 101 145 q 115 255 101 231 q 153 293 129 279 q 203 306 178 306 z "},"ៜ":{"ha":916,"x_min":136,"x_max":780,"o":"m 458 -7 q 216 46 297 -7 q 136 199 136 98 q 153 272 136 246 q 204 308 171 298 q 291 317 237 317 q 332 277 332 317 q 291 237 332 237 q 263 198 263 237 q 458 99 263 99 q 604 138 554 99 q 653 244 653 176 q 630 324 653 297 q 566 360 607 351 q 458 368 526 368 q 216 417 296 368 q 136 571 136 467 q 217 756 136 691 q 458 821 298 821 q 780 617 780 821 q 763 544 780 569 q 712 508 746 517 q 625 498 679 498 q 585 538 585 498 q 625 577 585 577 q 653 617 653 577 q 604 690 653 664 q 458 715 554 715 q 313 677 362 715 q 263 571 263 638 q 286 491 263 518 q 350 455 309 464 q 458 446 391 446 q 700 397 620 446 q 780 243 780 348 q 699 58 780 123 q 458 -7 617 -7 z "},"០":{"ha":880,"x_min":101,"x_max":779,"o":"m 101 170 l 101 847 q 271 1017 101 1017 l 610 1017 q 779 847 779 1017 l 779 170 q 610 0 779 0 l 271 0 q 101 170 101 0 m 541 847 l 338 847 l 338 170 l 541 170 l 541 847 z "},"១":{"ha":880,"x_min":101,"x_max":779,"o":"m 610 0 l 271 0 l 271 170 l 541 170 l 541 847 l 338 847 l 338 576 l 440 576 l 440 407 l 101 407 l 101 847 q 271 1017 101 1017 l 610 1017 q 779 847 779 1017 l 779 170 q 610 0 779 0 z "},"២":{"ha":1118,"x_min":33,"x_max":1017,"o":"m 407 1017 l 643 1017 l 711 933 l 779 1017 l 1017 1017 l 1017 170 q 847 0 1017 0 l 271 0 q 101 170 101 0 l 101 1017 l 33 1017 l 33 1186 l 170 1186 q 339 1084 339 1186 l 339 170 l 779 170 l 779 836 l 711 751 l 643 836 l 643 644 l 677 644 l 677 513 l 407 513 l 407 1017 z "},"៣":{"ha":1322,"x_min":101,"x_max":1221,"o":"m 1221 0 l 983 0 l 983 847 l 779 847 l 779 0 l 541 0 l 541 847 l 338 847 l 338 170 l 407 170 l 407 0 l 101 0 l 101 847 q 271 1017 101 1017 l 1051 1017 q 1221 847 1221 1017 l 1221 0 z "},"៤":{"ha":880,"x_min":33,"x_max":779,"o":"m 339 1084 l 339 170 l 595 170 l 440 304 l 440 543 q 454 607 440 576 q 505 657 469 637 q 610 677 542 677 l 779 677 l 779 543 l 677 543 l 677 269 l 779 170 l 746 0 l 304 0 q 101 170 101 0 l 101 1017 l 33 1017 l 33 1186 l 170 1186 q 339 1084 339 1186 z "},"៥":{"ha":880,"x_min":101,"x_max":779,"o":"m 101 170 l 101 746 l 216 818 q 178 832 197 822 q 121 882 141 850 q 101 950 101 914 l 101 1084 l 338 1084 l 338 916 l 541 916 l 541 1153 l 779 1153 l 779 916 q 644 781 779 781 l 338 781 l 338 170 l 602 170 l 440 304 l 440 509 q 454 574 440 543 q 505 625 469 605 q 610 644 542 644 l 779 644 l 779 509 l 677 509 l 677 269 l 779 170 l 745 0 l 304 0 q 153 43 203 0 q 101 170 101 84 z "},"៦":{"ha":880,"x_min":101,"x_max":779,"o":"m 779 847 l 779 170 q 610 0 779 0 l 271 0 q 101 170 101 0 l 101 440 q 271 610 101 610 l 440 610 l 440 440 l 338 440 l 338 170 l 541 170 l 541 847 l 338 847 l 338 781 l 101 781 l 101 1254 l 338 1254 l 338 1017 l 610 1017 q 779 847 779 1017 z "},"៧":{"ha":1219,"x_min":101,"x_max":1118,"o":"m 101 1017 l 338 1017 l 440 918 l 541 1017 l 779 1017 l 779 170 l 882 170 l 882 1221 l 1118 1221 l 1118 170 q 948 0 1118 0 l 711 0 q 541 170 541 0 l 541 818 l 440 720 l 338 818 l 338 170 l 407 170 l 407 0 l 101 0 l 101 1017 z "},"៨":{"ha":880,"x_min":101,"x_max":779,"o":"m 779 0 l 541 0 l 440 98 l 338 0 l 101 0 l 101 882 q 271 1017 101 1017 l 541 1017 l 541 1254 l 779 1254 l 779 814 l 541 814 l 541 882 l 338 882 l 338 199 l 440 297 l 541 199 l 541 475 l 440 475 l 440 644 l 677 644 q 779 543 779 644 l 779 0 z "},"៩":{"ha":880,"x_min":101,"x_max":779,"o":"m 440 713 l 677 713 l 677 543 l 440 543 q 338 475 338 543 l 338 136 l 541 136 l 541 237 l 440 237 l 440 440 l 655 440 q 779 339 779 440 l 779 136 q 610 0 779 0 l 271 0 q 101 136 101 0 l 101 543 q 175 628 128 597 q 101 713 128 659 l 101 882 q 271 1017 101 1017 l 541 1017 l 541 1254 l 779 1254 l 779 814 l 541 814 l 541 882 l 338 882 l 338 781 q 440 713 338 713 z "},".":{"ha":281,"x_min":55,"x_max":223,"o":"m 218 0 l 60 0 q 55 5 55 0 l 55 163 q 60 168 55 168 l 218 168 q 223 163 223 168 l 223 5 q 218 0 223 0 z "},",":{"ha":281,"x_min":55,"x_max":223,"o":"m 55 -175 l 55 -89 q 114 -62 90 -89 q 138 0 138 -36 l 60 0 q 55 5 55 0 l 55 161 q 60 167 55 167 l 218 167 q 223 161 223 167 l 223 0 q 199 -89 223 -49 q 138 -152 176 -129 q 55 -175 100 -175 z "},":":{"ha":281,"x_min":55,"x_max":223,"o":"m 218 412 l 60 412 q 55 418 55 412 l 55 575 q 60 581 55 581 l 218 581 q 223 575 223 581 l 223 418 q 218 412 223 412 m 218 0 l 60 0 q 55 5 55 0 l 55 163 q 60 168 55 168 l 218 168 q 223 163 223 168 l 223 5 q 218 0 223 0 z "},";":{"ha":281,"x_min":55,"x_max":223,"o":"m 218 412 l 60 412 q 55 418 55 412 l 55 575 q 60 581 55 581 l 218 581 q 223 575 223 581 l 223 418 q 218 412 223 412 m 55 -175 l 55 -89 q 114 -62 90 -89 q 138 0 138 -36 l 60 0 q 55 5 55 0 l 55 161 q 60 167 55 167 l 218 167 q 223 161 223 167 l 223 0 q 199 -89 223 -49 q 138 -152 176 -129 q 55 -175 100 -175 z "},"!":{"ha":281,"x_min":55,"x_max":223,"o":"m 186 256 l 91 256 q 84 262 85 256 l 55 582 l 55 960 q 60 966 55 966 l 216 966 q 223 960 223 966 l 222 582 l 193 262 q 186 256 192 256 m 216 0 l 60 0 q 55 7 55 0 l 55 158 q 60 164 55 164 l 216 164 q 222 158 222 164 l 222 7 q 216 0 222 0 z "},"?":{"ha":604,"x_min":19,"x_max":562,"o":"m 368 256 l 214 256 q 206 261 206 256 l 206 336 q 232 448 206 392 q 302 549 258 504 q 339 586 323 570 q 363 613 354 602 q 389 655 383 636 q 394 701 394 675 q 365 783 394 750 q 291 815 336 815 q 217 783 247 815 q 187 701 187 750 l 187 600 q 182 595 187 595 l 24 595 q 19 600 19 595 l 19 701 q 56 843 19 779 q 155 944 93 907 q 291 982 216 982 q 428 945 366 982 q 526 843 490 907 q 562 701 562 779 q 553 621 562 657 q 516 547 543 585 q 438 452 490 509 q 389 389 404 416 q 374 328 374 361 l 374 261 q 368 256 374 256 m 368 0 l 214 0 q 206 7 206 0 l 206 161 q 214 167 206 167 l 368 167 q 374 161 374 167 l 374 7 q 368 0 374 0 z "},"*":{"ha":488,"x_min":37,"x_max":425,"o":"m 425 822 l 309 754 l 425 685 l 363 604 l 276 671 l 281 549 l 180 549 l 186 669 l 98 602 l 39 682 l 154 753 l 37 825 l 98 905 l 187 838 l 180 965 l 283 965 l 275 838 l 365 903 l 425 822 z "},"#":{"ha":658,"x_min":29,"x_max":619,"o":"m 256 275 l 139 275 q 132 282 132 275 l 132 418 l 37 418 q 29 425 29 418 l 29 534 q 31 540 29 536 q 37 543 33 543 l 132 543 l 132 697 l 37 697 q 29 705 29 697 l 29 818 q 37 825 29 825 l 132 825 l 132 961 q 136 966 132 966 l 258 966 q 261 961 261 966 l 261 825 l 389 825 l 389 961 q 395 966 389 966 l 517 966 q 519 964 519 966 l 519 825 l 612 825 q 619 819 619 825 l 619 705 q 612 697 619 697 l 519 697 l 519 543 l 612 543 q 619 534 619 543 l 619 425 q 612 418 619 418 l 519 418 l 519 282 q 517 275 519 275 l 396 275 q 389 282 389 275 l 389 418 l 261 418 l 261 282 q 256 275 261 275 m 389 697 l 261 697 l 261 543 l 389 543 l 389 697 z "},"/":{"ha":415,"x_min":42,"x_max":373,"o":"m 190 0 l 48 0 q 43 7 42 0 l 215 961 q 222 966 216 966 l 366 966 q 372 961 373 966 l 197 7 q 190 0 196 0 z "},"\\":{"ha":418,"x_min":41,"x_max":376,"o":"m 369 0 l 223 0 q 216 7 217 0 l 43 961 q 48 966 41 966 l 193 966 q 199 961 198 966 l 375 7 q 369 0 376 0 z "},"(":{"ha":452,"x_min":51,"x_max":399,"o":"m 390 -14 l 315 -14 q 183 27 243 -11 q 87 128 123 65 q 51 265 51 191 l 52 705 q 87 841 52 779 q 183 941 123 903 q 315 982 243 979 l 393 982 q 399 977 399 982 l 399 819 q 393 814 399 814 l 313 814 q 245 782 273 814 q 218 705 218 750 l 218 265 q 246 190 218 222 q 313 154 275 158 l 389 154 q 395 149 395 154 l 397 -8 q 390 -14 397 -14 z "},")":{"ha":452,"x_min":52,"x_max":401,"o":"m 136 -14 l 62 -14 q 55 -8 55 -14 l 55 149 q 62 154 55 154 l 136 154 q 205 190 177 158 q 234 265 234 222 l 234 705 q 206 782 234 750 q 136 814 178 814 l 59 814 q 52 819 52 814 l 52 977 q 59 982 52 982 l 137 982 q 269 941 210 979 q 365 841 330 903 q 399 705 399 779 l 401 265 q 365 128 401 191 q 269 27 329 65 q 136 -14 209 -11 z "},"{":{"ha":564,"x_min":9,"x_max":511,"o":"m 504 0 l 157 0 q 151 5 151 0 l 151 412 l 16 412 q 9 418 9 412 l 9 570 q 16 575 9 575 l 151 575 l 151 961 q 157 966 151 966 l 504 966 q 511 961 511 966 l 511 810 q 504 804 511 804 l 312 804 l 312 163 l 504 163 q 511 157 511 163 l 511 5 q 504 0 511 0 z "},"}":{"ha":564,"x_min":52,"x_max":553,"o":"m 406 0 l 59 0 q 52 5 52 0 l 52 157 q 59 163 52 163 l 251 163 l 251 804 l 59 804 q 52 810 52 804 l 52 961 q 59 966 52 966 l 406 966 q 412 961 412 966 l 412 575 l 547 575 q 553 570 553 575 l 553 418 q 547 412 553 412 l 412 412 l 412 5 q 406 0 412 0 z "},"[":{"ha":464,"x_min":51,"x_max":410,"o":"m 404 0 l 56 0 q 51 5 51 0 l 51 961 q 56 966 51 966 l 404 966 q 410 961 410 966 l 410 810 q 404 804 410 804 l 212 804 l 212 163 l 404 163 q 410 157 410 163 l 410 5 q 404 0 410 0 z "},"]":{"ha":464,"x_min":52,"x_max":412,"o":"m 406 0 l 59 0 q 52 5 52 0 l 52 157 q 59 163 52 163 l 251 163 l 251 804 l 59 804 q 52 810 52 804 l 52 961 q 59 966 52 966 l 406 966 q 412 961 412 966 l 412 5 q 406 0 412 0 z "},"-":{"ha":420,"x_min":60,"x_max":342,"o":"m 335 401 l 66 401 q 60 407 60 401 l 60 558 q 66 564 60 564 l 335 564 q 342 558 342 564 l 342 407 q 335 401 342 401 z "},"_":{"ha":760,"x_min":55,"x_max":701,"o":"m 695 -146 l 60 -146 q 55 -140 55 -146 l 55 1 q 60 7 55 7 l 695 7 q 701 1 701 7 l 701 -140 q 695 -146 701 -146 z "},"«":{"ha":843,"x_min":33,"x_max":791,"o":"m 332 144 l 44 444 q 35 467 36 452 q 44 493 33 482 l 339 794 q 349 793 345 800 l 440 689 q 440 677 444 682 l 216 471 l 437 256 q 436 244 443 251 l 342 146 q 332 144 336 140 m 679 144 l 391 444 q 382 467 383 452 q 391 493 380 482 l 686 794 q 696 793 692 800 l 787 689 q 787 677 791 682 l 564 471 l 785 256 q 783 244 790 251 l 689 146 q 679 144 683 140 z "},"»":{"ha":843,"x_min":51,"x_max":809,"o":"m 451 446 l 157 144 q 146 146 151 139 l 55 250 q 55 261 51 257 l 279 468 l 58 684 q 59 694 52 688 l 154 793 q 163 794 159 800 l 451 494 q 460 472 459 488 q 451 446 462 457 m 798 446 l 504 144 q 494 146 498 139 l 402 250 q 402 261 398 257 l 626 468 l 405 684 q 406 694 399 688 l 501 793 q 511 794 507 800 l 798 494 q 808 472 806 488 q 798 446 809 457 z "},"\"":{"ha":543,"x_min":60,"x_max":482,"o":"m 201 640 l 65 640 q 60 647 60 640 l 82 961 q 89 966 83 966 l 227 966 q 232 961 233 966 l 205 644 q 201 640 205 640 m 450 640 l 314 640 q 309 647 309 640 l 330 961 q 338 966 332 966 l 475 966 q 481 961 482 966 l 454 644 q 450 640 454 640 z "},"'":{"ha":294,"x_min":60,"x_max":233,"o":"m 201 640 l 65 640 q 60 647 60 640 l 82 961 q 89 966 83 966 l 227 966 q 232 961 233 966 l 205 644 q 201 640 205 640 z "},"។":{"ha":880,"x_min":101,"x_max":779,"o":"m 338 746 l 101 746 l 101 1017 l 338 1017 l 338 896 q 541 1017 401 896 l 779 1017 l 779 0 l 541 0 l 541 844 q 338 746 443 746 z "},"៕":{"ha":1219,"x_min":101,"x_max":1118,"o":"m 338 746 l 101 746 l 101 1017 l 338 1017 l 338 896 q 541 1017 401 896 l 779 1017 l 779 0 l 541 0 l 541 844 q 338 746 443 746 m 1118 0 l 882 0 l 882 1017 l 1118 1017 l 1118 0 z "},"៖":{"ha":610,"x_min":33,"x_max":576,"o":"m 304 1017 q 404 991 355 1017 q 480 916 452 965 q 508 814 508 867 q 481 713 508 761 q 406 637 454 664 q 304 610 357 610 q 203 637 251 610 q 127 712 154 664 q 101 814 101 761 q 128 916 101 867 q 204 991 155 965 q 304 1017 253 1017 m 304 882 q 257 862 278 882 q 236 814 236 842 q 256 766 236 786 q 304 746 277 746 q 352 766 332 746 q 372 814 372 785 q 352 862 372 842 q 304 882 332 882 m 576 543 l 576 475 l 33 475 l 33 543 l 576 543 m 304 407 q 404 380 355 407 q 480 306 452 354 q 508 203 508 257 q 481 102 508 151 q 406 27 454 55 q 304 0 357 0 q 203 27 251 0 q 127 102 154 54 q 101 203 101 150 q 128 306 101 258 q 204 380 155 354 q 304 407 253 407 m 304 271 q 257 251 277 271 q 236 203 236 232 q 256 155 236 174 q 304 136 277 136 q 353 155 333 136 q 372 203 372 174 q 353 252 372 233 q 304 271 333 271 z "},"ៗ":{"ha":880,"x_min":101,"x_max":779,"o":"m 440 922 l 541 1017 l 779 1017 l 779 0 l 541 0 l 541 840 l 440 746 l 338 840 l 338 746 l 101 746 l 101 1017 l 338 1017 l 440 922 z "},"៘":{"ha":3084,"x_min":101,"x_max":2983,"o":"m 338 746 l 101 746 l 101 1017 l 338 1017 l 338 896 q 541 1017 401 896 l 779 1017 l 779 0 l 541 0 l 541 844 q 338 746 443 746 m 1661 847 l 1661 170 l 1865 170 l 1865 677 l 1762 785 l 1898 1017 l 2101 1017 l 2101 847 l 1905 847 l 2101 677 l 2101 170 q 1931 0 2101 0 l 1593 0 q 1423 170 1423 0 l 1423 847 l 1221 847 l 1221 170 l 1287 170 l 1287 0 l 983 0 l 983 847 q 1152 1017 983 1017 l 1491 1017 q 1661 847 1661 1017 m 2542 746 l 2305 746 l 2305 1017 l 2542 1017 l 2542 896 q 2745 1017 2606 896 l 2983 1017 l 2983 0 l 2745 0 l 2745 844 q 2542 746 2647 746 z "},"៙":{"ha":948,"x_min":101,"x_max":847,"o":"m 475 0 q 101 509 101 0 q 475 1017 101 1017 q 847 509 847 1017 q 475 0 847 0 m 475 932 q 194 509 194 932 q 475 85 194 85 q 754 509 754 85 q 475 932 754 932 m 475 170 q 287 509 287 170 q 475 847 287 847 q 661 509 661 847 q 475 170 661 170 m 475 762 q 382 509 382 762 q 475 254 382 254 q 568 509 568 254 q 475 762 568 762 z "},"៚":{"ha":1898,"x_min":101,"x_max":1797,"o":"m 355 1017 q 612 739 612 1017 q 399 555 612 555 q 358 602 358 555 q 399 647 358 647 q 526 741 526 647 q 358 925 526 925 q 186 741 186 925 l 186 278 q 358 90 186 90 q 528 193 444 90 q 697 507 613 296 l 863 922 l 949 922 l 1162 248 l 1287 829 l 1373 829 l 1499 346 l 1586 553 l 1755 553 q 1797 507 1797 553 q 1755 461 1797 461 l 1628 461 l 1543 184 l 1458 184 l 1330 647 l 1204 92 l 1119 92 l 907 808 l 765 461 q 355 0 576 0 q 101 278 101 0 l 101 741 q 355 1017 101 1017 z "}," ":{"ha":361,"x_min":0,"x_max":0,"o":""}," ":{"ha":361,"x_min":0,"x_max":0,"o":""},"$":{"ha":521,"x_min":26,"x_max":475,"o":"m 313 0 l 193 0 q 187 5 187 0 l 187 86 q 72 168 117 107 q 27 304 27 228 l 27 357 q 33 363 27 363 l 159 363 q 163 357 163 363 l 163 304 q 189 241 163 268 q 250 214 215 214 q 310 241 286 214 q 334 301 334 268 q 280 375 334 345 q 223 407 262 386 q 151 446 184 428 q 56 539 85 482 q 26 667 26 596 q 71 802 26 745 q 184 880 116 860 l 184 961 q 190 966 184 966 l 311 966 q 317 961 317 966 l 317 879 q 428 800 384 859 q 471 667 471 742 l 471 574 q 467 570 471 570 l 340 570 q 336 574 336 570 l 334 667 q 309 731 334 707 q 250 755 283 755 q 191 729 215 755 q 166 667 166 703 q 181 608 166 632 q 237 559 197 583 l 352 496 q 442 419 409 465 q 475 304 475 374 q 432 168 475 225 q 320 87 389 110 l 320 5 q 313 0 320 0 z "},"៛":{"ha":440,"x_min":0,"x_max":440,"o":"m 102 677 l 0 785 l 136 1017 l 339 1017 l 339 847 l 143 847 l 339 677 l 339 593 l 440 593 l 440 424 l 339 424 l 339 0 l 33 0 l 33 170 l 102 170 l 102 424 l 0 424 l 0 593 l 102 593 l 102 677 z "},"+":{"ha":614,"x_min":32,"x_max":581,"o":"m 361 178 l 244 178 q 237 184 237 178 l 237 433 l 40 433 q 32 440 32 433 l 32 550 q 34 555 32 551 q 40 558 36 558 l 237 558 l 237 811 q 244 814 237 814 l 361 814 q 367 811 367 814 l 367 558 l 574 558 q 581 550 581 558 l 581 440 q 574 433 581 433 l 367 433 l 367 184 q 361 178 367 178 z "},"=":{"ha":615,"x_min":32,"x_max":582,"o":"m 574 550 l 40 550 q 32 557 32 550 l 32 667 q 40 675 32 675 l 574 675 q 581 667 581 675 l 581 557 q 574 550 581 550 m 575 314 l 41 314 q 33 321 33 314 l 33 431 q 41 439 33 439 l 575 439 q 582 431 582 439 l 582 321 q 575 314 582 314 z "},">":{"ha":591,"x_min":51,"x_max":530,"o":"m 519 473 l 134 167 q 125 168 130 163 l 55 253 q 55 264 51 260 l 342 497 l 64 722 q 66 733 62 725 l 134 818 q 144 819 140 823 l 519 521 q 530 499 530 513 q 519 473 530 485 z "},"<":{"ha":591,"x_min":31,"x_max":510,"o":"m 427 167 l 41 473 q 31 499 31 484 q 41 521 31 513 l 416 819 q 427 818 420 823 l 494 733 q 496 722 498 725 l 218 497 l 505 264 q 505 253 510 260 l 436 168 q 427 167 431 163 z "},"~":{"ha":659,"x_min":52,"x_max":583,"o":"m 423 424 q 351 439 383 424 q 294 466 324 450 q 243 482 264 482 q 202 469 216 482 q 189 436 189 456 q 183 431 189 431 l 58 431 q 52 436 52 431 q 74 511 52 471 q 135 575 96 549 q 230 602 174 602 q 301 588 270 602 q 353 562 326 577 q 398 547 381 547 q 432 560 418 547 q 447 599 447 572 q 452 604 447 604 l 577 604 q 583 599 583 604 q 560 503 583 542 q 500 444 537 464 q 423 424 463 424 z "},"^":{"ha":511,"x_min":26,"x_max":466,"o":"m 466 656 l 365 581 l 245 774 l 127 581 l 26 654 l 215 950 q 248 961 226 961 q 277 950 269 961 l 466 656 z "},"%":{"ha":941,"x_min":22,"x_max":913,"o":"m 201 518 q 112 543 152 518 q 46 610 71 568 q 22 700 22 652 l 22 799 q 46 890 22 849 q 112 957 71 932 q 201 981 153 981 q 292 956 251 981 q 355 890 332 932 q 378 799 378 848 l 378 700 q 355 609 378 650 q 290 543 330 568 q 201 518 250 518 m 263 0 l 101 0 q 97 7 94 0 l 651 961 q 659 966 655 966 l 821 966 q 825 961 828 966 l 272 7 q 263 0 269 0 m 198 631 q 244 651 226 631 q 262 700 262 671 l 262 796 q 244 844 262 823 q 198 864 226 864 q 152 844 170 864 q 133 796 133 823 l 133 700 q 152 651 133 672 q 198 631 172 631 m 736 -14 q 646 12 686 -14 q 581 78 605 36 q 556 168 556 119 l 556 267 q 581 359 556 317 q 646 425 605 401 q 736 449 687 449 q 826 425 785 449 q 890 358 866 400 q 913 267 913 317 l 913 168 q 889 77 913 118 q 824 11 865 36 q 736 -14 784 -14 m 734 98 q 780 119 762 98 q 798 168 798 139 l 798 264 q 780 312 798 292 q 734 332 762 332 q 688 312 707 332 q 669 264 669 292 l 669 168 q 688 119 669 140 q 734 98 708 98 z "},"◌":{"ha":825,"x_min":66,"x_max":758,"o":"m 449 714 q 412 676 449 676 q 376 714 376 676 q 412 750 376 750 q 449 714 449 750 m 332 689 q 294 653 332 653 q 258 689 258 653 q 294 726 258 726 q 332 689 332 726 m 567 689 q 532 653 567 653 q 493 689 493 653 q 532 726 493 726 q 567 689 567 726 m 232 623 q 195 586 232 586 q 158 621 158 586 q 195 660 158 660 q 232 623 232 660 m 667 623 q 632 586 667 586 q 595 623 595 586 q 632 660 595 660 q 667 623 667 660 m 164 522 q 129 485 164 485 q 90 522 90 485 q 127 558 90 558 q 164 522 164 558 m 734 522 q 697 485 734 485 q 661 522 661 485 q 699 558 661 558 q 734 522 734 558 m 140 404 q 104 368 140 368 q 66 404 66 368 q 104 440 66 440 q 140 404 140 440 m 758 404 q 724 368 758 368 q 686 404 686 368 q 724 440 686 440 q 758 404 758 440 m 164 286 q 127 250 164 250 q 90 286 90 250 q 127 323 90 323 q 164 286 164 323 m 734 286 q 697 250 734 250 q 661 286 661 250 q 697 323 661 323 q 734 286 734 323 m 232 184 q 195 149 232 149 q 158 184 158 149 q 195 222 158 222 q 232 184 232 222 m 667 184 q 632 149 667 149 q 595 184 595 149 q 632 222 595 222 q 667 184 667 222 m 332 121 q 294 83 332 83 q 258 118 258 83 q 294 155 258 155 q 332 121 332 155 m 567 118 q 532 83 567 83 q 493 118 493 83 q 532 155 493 155 q 567 118 567 155 m 449 96 q 412 58 449 58 q 376 96 376 58 q 412 132 376 132 q 449 96 449 132 z "},"@":{"ha":751,"x_min":39,"x_max":701,"o":"m 312 -14 q 176 24 238 -14 q 76 126 114 62 q 39 265 39 189 l 40 705 q 77 844 40 782 q 176 944 114 905 q 311 982 237 982 l 399 982 q 541 943 479 982 q 638 840 602 904 q 672 701 673 777 l 671 500 q 650 367 671 426 q 583 272 629 307 q 460 237 537 237 q 318 312 366 237 q 271 500 271 386 l 271 682 q 276 686 271 686 l 426 686 q 431 682 431 686 l 431 496 q 438 411 431 437 q 465 386 445 386 q 495 409 489 386 q 501 496 501 433 l 503 705 q 473 783 503 751 q 399 815 444 815 l 311 815 q 238 783 268 814 q 208 705 208 751 l 208 265 q 239 197 208 220 q 312 174 269 174 q 496 176 393 174 q 694 186 600 178 q 701 179 701 186 l 701 7 q 694 0 701 1 q 632 -4 677 -1 q 542 -8 587 -6 q 425 -12 486 -11 q 312 -14 365 -14 z "},"&":{"ha":690,"x_min":16,"x_max":673,"o":"m 538 0 l 292 -1 q 148 39 210 -1 q 51 140 86 79 q 16 262 16 201 l 16 354 q 39 446 16 401 q 97 525 61 490 q 51 603 68 557 q 35 707 35 650 q 68 838 35 779 q 160 932 102 897 q 288 966 218 966 l 476 966 q 486 957 486 966 l 486 810 q 477 802 486 802 l 288 802 q 228 774 254 802 q 202 707 202 746 q 224 633 202 660 q 288 607 245 607 l 666 607 q 673 600 673 607 l 673 446 q 668 440 673 440 l 545 440 l 544 5 q 538 0 544 0 m 292 165 l 382 167 l 383 440 l 287 440 q 234 426 258 440 q 182 354 182 394 l 182 262 q 195 219 182 242 q 233 181 209 196 q 292 165 258 165 z "},"|":{"ha":275,"x_min":55,"x_max":216,"o":"m 213 0 l 60 0 q 55 5 55 0 l 55 961 q 60 966 55 966 l 210 966 q 216 961 216 966 l 216 5 q 213 0 216 0 z "},"`":{"ha":395,"x_min":52,"x_max":338,"o":"m 332 1040 l 193 1040 q 184 1046 188 1040 l 55 1286 q 60 1292 52 1292 l 219 1292 q 226 1286 225 1292 l 337 1046 q 332 1040 338 1040 z "},"ិ":{"ha":0,"x_min":-711,"x_max":-101,"o":"m -101 1186 l -101 1120 l -711 1120 l -711 1186 q -650 1339 -711 1289 q -467 1390 -589 1390 q -273 1339 -364 1390 q -101 1186 -181 1289 m -467 1254 q -528 1238 -508 1254 q -548 1186 -548 1221 l -230 1186 q -326 1238 -266 1220 q -467 1254 -386 1254 z "},"ី":{"ha":0,"x_min":-711,"x_max":-101,"o":"m -222 1305 l -222 1423 l -101 1423 l -101 1120 l -711 1120 l -711 1186 q -650 1339 -711 1289 q -467 1390 -589 1390 q -340 1369 -400 1390 q -222 1305 -278 1349 m -467 1254 q -528 1238 -508 1254 q -548 1186 -548 1221 l -230 1186 q -326 1238 -266 1220 q -467 1254 -386 1254 z "},"ឹ":{"ha":0,"x_min":-711,"x_max":-66,"o":"m -106 1186 l -106 1120 l -711 1120 l -711 1186 q -650 1339 -711 1289 q -469 1390 -590 1390 q -334 1365 -397 1390 q -207 1423 -304 1423 q -102 1393 -137 1423 q -66 1304 -66 1363 q -119 1203 -66 1231 q -113 1194 -116 1198 q -106 1186 -109 1190 m -147 1304 q -162 1343 -147 1331 q -207 1356 -177 1356 q -262 1331 -250 1356 q -172 1260 -215 1300 q -147 1304 -147 1272 m -469 1254 q -529 1238 -509 1254 q -549 1186 -549 1221 l -236 1186 q -330 1238 -270 1221 q -469 1254 -388 1254 z "},"ឺ":{"ha":0,"x_min":-711,"x_max":-101,"o":"m -182 1274 l -182 1423 l -101 1423 l -101 1120 l -711 1120 l -711 1186 q -650 1339 -711 1289 q -467 1390 -589 1390 q -344 1371 -405 1390 l -344 1423 l -264 1423 l -264 1333 q -182 1274 -220 1308 m -467 1254 q -528 1238 -508 1254 q -548 1186 -548 1221 l -230 1186 q -326 1238 -266 1220 q -467 1254 -386 1254 z "},"ុ":{"ha":0,"x_min":-304,"x_max":-101,"o":"m -304 -475 l -304 -68 l -101 -68 l -101 -475 l -304 -475 z "},"ូ":{"ha":0,"x_min":-541,"x_max":-101,"o":"m -541 -374 l -541 -68 l -405 -68 l -405 -374 l -304 -374 l -304 -68 l -101 -68 l -101 -374 q -235 -475 -101 -475 l -405 -475 q -541 -374 -541 -475 z "},"ួ":{"ha":0,"x_min":-576,"x_max":-101,"o":"m -439 -346 l -373 -258 l -305 -346 l -305 -68 l -101 -68 l -101 -475 l -305 -475 l -373 -386 l -439 -475 l -576 -475 l -576 -68 l -439 -68 l -439 -346 z "},"ើ":{"ha":0,"x_min":-711,"x_max":-101,"o":"m -222 1305 l -222 1423 l -101 1423 l -101 1120 l -711 1120 l -711 1186 q -650 1339 -711 1289 q -467 1390 -589 1390 q -340 1369 -400 1390 q -222 1305 -278 1349 m -467 1254 q -528 1238 -508 1254 q -548 1186 -548 1221 l -230 1186 q -326 1238 -266 1220 q -467 1254 -386 1254 z "},"ំ":{"ha":0,"x_min":-643,"x_max":-236,"o":"m -440 1527 q -340 1500 -387 1527 q -264 1424 -292 1474 q -236 1322 -236 1375 q -263 1221 -236 1269 q -338 1146 -290 1173 q -440 1120 -386 1120 q -541 1146 -492 1120 q -616 1221 -589 1173 q -643 1322 -643 1270 q -615 1425 -643 1375 q -539 1500 -587 1474 q -440 1527 -492 1527 m -440 1390 q -487 1370 -467 1390 q -507 1322 -507 1350 q -487 1274 -507 1295 q -440 1254 -467 1254 q -391 1274 -410 1254 q -372 1322 -372 1293 q -392 1370 -372 1350 q -440 1390 -412 1390 z "},"៉":{"ha":0,"x_min":-626,"x_max":-252,"o":"m -490 1527 l -490 1120 l -626 1120 l -626 1527 l -490 1527 m -252 1527 l -252 1120 l -389 1120 l -389 1527 l -252 1527 z "},"៊":{"ha":0,"x_min":-779,"x_max":-101,"o":"m -387 1254 l -101 1254 l -101 1084 l -779 1084 l -779 1254 l -491 1254 l -439 1221 l -387 1254 z "},"់":{"ha":0,"x_min":-525,"x_max":-355,"o":"m -355 1527 l -355 1120 l -525 1120 l -525 1527 l -355 1527 z "},"៌":{"ha":0,"x_min":-745,"x_max":-136,"o":"m -326 1254 l -536 1254 l -536 1193 l -136 1193 l -136 1120 l -745 1120 l -745 1322 l -450 1322 q -344 1423 -344 1322 l -136 1423 l -136 1322 q -326 1254 -136 1254 z "},"៍":{"ha":0,"x_min":-745,"x_max":-136,"o":"m -326 1254 l -536 1254 l -536 1193 l -435 1193 l -435 1120 l -745 1120 l -745 1322 l -450 1322 q -344 1423 -344 1322 l -136 1423 l -136 1322 q -326 1254 -136 1254 z "},"៎":{"ha":0,"x_min":-643,"x_max":-236,"o":"m -236 1254 l -372 1254 l -372 1120 l -507 1120 l -507 1254 l -643 1254 l -643 1390 l -507 1390 l -507 1527 l -372 1527 l -372 1390 l -236 1390 l -236 1254 z "},"៏":{"ha":0,"x_min":-745,"x_max":-136,"o":"m -441 1178 l -532 1120 l -745 1120 l -745 1390 l -451 1390 q -347 1458 -347 1390 l -136 1458 l -136 1390 q -324 1322 -136 1322 l -533 1322 l -533 1200 l -439 1258 l -347 1200 l -347 1268 l -136 1268 l -136 1120 l -347 1120 l -441 1178 z "},"័":{"ha":0,"x_min":-610,"x_max":0,"o":"m -151 1120 l -610 1120 l -610 1357 l -343 1357 l -343 1289 l -418 1289 l -418 1254 l -191 1254 l -191 1390 l 0 1390 l 0 1221 q -151 1120 0 1120 z "},"៑":{"ha":0,"x_min":-779,"x_max":-101,"o":"m -101 1289 l -101 1120 l -779 1120 l -779 1289 l -101 1289 z "},"្":{"ha":0,"x_min":-643,"x_max":-236,"o":"m -236 -339 l -372 -339 l -372 -475 l -507 -475 l -507 -339 l -643 -339 l -643 -203 l -507 -203 l -507 -68 l -372 -68 l -372 -203 l -236 -203 l -236 -339 z "},"៓":{"ha":0,"x_min":-745,"x_max":-136,"o":"m -439 1593 q -290 1563 -363 1593 q -177 1476 -218 1533 q -136 1357 -136 1418 q -176 1238 -136 1295 q -288 1151 -215 1182 q -439 1120 -361 1120 q -591 1151 -518 1120 q -704 1238 -663 1182 q -745 1357 -745 1295 q -704 1476 -745 1418 q -589 1563 -662 1533 q -439 1593 -516 1593 m -439 1436 q -495 1413 -471 1436 q -519 1357 -519 1389 q -494 1301 -519 1326 q -439 1276 -470 1276 q -383 1300 -406 1276 q -361 1357 -361 1324 q -384 1413 -361 1390 q -439 1436 -406 1436 z "},"៝":{"ha":0,"x_min":-739,"x_max":-135,"o":"m -739 997 q -437 1201 -739 1201 q -135 997 -135 1201 l -267 997 q -437 1120 -267 1120 q -609 997 -609 1120 l -739 997 z "}}}
